<mxfile host="app.diagrams.net" modified="2023-12-04T11:26:17.260Z" agent="Mozilla/5.0 (Windows NT 10.0; Win64; x64) AppleWebKit/537.36 (KHTML, like Gecko) Chrome/119.0.0.0 Safari/537.36" etag="9nZU3JSw-pjIgVdkUdhq" version="22.1.5" type="google" pages="5">
  <diagram name="Logout" id="EftMwwJCYbCIw0MxPUet">
    <mxGraphModel grid="1" page="1" gridSize="10" guides="1" tooltips="1" connect="1" arrows="1" fold="1" pageScale="1" pageWidth="827" pageHeight="1169" math="0" shadow="0">
      <root>
        <mxCell id="WIyWlLk6GJQsqaUBKTNV-0" />
        <mxCell id="WIyWlLk6GJQsqaUBKTNV-1" parent="WIyWlLk6GJQsqaUBKTNV-0" />
        <mxCell id="L1WbMbf6Vr-RHlHyFvd6-12" style="edgeStyle=orthogonalEdgeStyle;rounded=0;orthogonalLoop=1;jettySize=auto;html=1;entryX=0.25;entryY=0;entryDx=0;entryDy=0;" edge="1" parent="WIyWlLk6GJQsqaUBKTNV-1" source="WIyWlLk6GJQsqaUBKTNV-3" target="L1WbMbf6Vr-RHlHyFvd6-1">
          <mxGeometry relative="1" as="geometry">
            <Array as="points">
              <mxPoint x="148" y="140" />
            </Array>
          </mxGeometry>
        </mxCell>
        <mxCell id="WIyWlLk6GJQsqaUBKTNV-3" value="Tab 1" style="rounded=1;whiteSpace=wrap;html=1;fontSize=12;glass=0;strokeWidth=1;shadow=0;" vertex="1" parent="WIyWlLk6GJQsqaUBKTNV-1">
          <mxGeometry x="113" y="80" width="120" height="40" as="geometry" />
        </mxCell>
        <mxCell id="N0B5e13UZiZrXVN4QuVL-0" value="Tab 2" style="rounded=1;whiteSpace=wrap;html=1;fontSize=12;glass=0;strokeWidth=1;shadow=0;" vertex="1" parent="WIyWlLk6GJQsqaUBKTNV-1">
          <mxGeometry x="263" y="80" width="120" height="40" as="geometry" />
        </mxCell>
        <mxCell id="N0B5e13UZiZrXVN4QuVL-1" value="Tab 3" style="rounded=1;whiteSpace=wrap;html=1;fontSize=12;glass=0;strokeWidth=1;shadow=0;" vertex="1" parent="WIyWlLk6GJQsqaUBKTNV-1">
          <mxGeometry x="413" y="80" width="120" height="40" as="geometry" />
        </mxCell>
        <mxCell id="L1WbMbf6Vr-RHlHyFvd6-43" style="edgeStyle=orthogonalEdgeStyle;rounded=0;orthogonalLoop=1;jettySize=auto;html=1;" edge="1" parent="WIyWlLk6GJQsqaUBKTNV-1" source="N0B5e13UZiZrXVN4QuVL-2">
          <mxGeometry relative="1" as="geometry">
            <mxPoint x="663" y="420" as="targetPoint" />
            <Array as="points">
              <mxPoint x="623" y="360" />
              <mxPoint x="663" y="360" />
              <mxPoint x="663" y="417" />
            </Array>
          </mxGeometry>
        </mxCell>
        <mxCell id="N0B5e13UZiZrXVN4QuVL-2" value="Any External Tab" style="rounded=1;whiteSpace=wrap;html=1;fontSize=12;glass=0;strokeWidth=1;shadow=0;" vertex="1" parent="WIyWlLk6GJQsqaUBKTNV-1">
          <mxGeometry x="563" y="80" width="120" height="40" as="geometry" />
        </mxCell>
        <mxCell id="L1WbMbf6Vr-RHlHyFvd6-1" value="Make form Dirty" style="html=1;whiteSpace=wrap;container=1;recursiveResize=0;collapsible=0;" vertex="1" parent="WIyWlLk6GJQsqaUBKTNV-1">
          <mxGeometry x="120" y="160" width="110" height="40" as="geometry" />
        </mxCell>
        <mxCell id="L1WbMbf6Vr-RHlHyFvd6-2" value="" style="triangle;html=1;whiteSpace=wrap;" vertex="1" parent="L1WbMbf6Vr-RHlHyFvd6-1">
          <mxGeometry y="10" width="10" height="20" as="geometry" />
        </mxCell>
        <mxCell id="L1WbMbf6Vr-RHlHyFvd6-37" style="edgeStyle=orthogonalEdgeStyle;rounded=0;orthogonalLoop=1;jettySize=auto;html=1;" edge="1" parent="WIyWlLk6GJQsqaUBKTNV-1" source="L1WbMbf6Vr-RHlHyFvd6-4">
          <mxGeometry relative="1" as="geometry">
            <mxPoint x="223" y="360" as="targetPoint" />
            <Array as="points">
              <mxPoint x="493" y="310" />
              <mxPoint x="223" y="310" />
            </Array>
          </mxGeometry>
        </mxCell>
        <mxCell id="L1WbMbf6Vr-RHlHyFvd6-4" value="Make form Dirty" style="html=1;whiteSpace=wrap;container=1;recursiveResize=0;collapsible=0;" vertex="1" parent="WIyWlLk6GJQsqaUBKTNV-1">
          <mxGeometry x="420" y="160" width="110" height="40" as="geometry" />
        </mxCell>
        <mxCell id="L1WbMbf6Vr-RHlHyFvd6-5" value="" style="triangle;html=1;whiteSpace=wrap;" vertex="1" parent="L1WbMbf6Vr-RHlHyFvd6-4">
          <mxGeometry y="10" width="10" height="20" as="geometry" />
        </mxCell>
        <mxCell id="L1WbMbf6Vr-RHlHyFvd6-16" value="&lt;b&gt;&lt;font style=&quot;font-size: 14px;&quot;&gt;Logout action perfomed from any application.&lt;/font&gt;&lt;/b&gt;" style="shape=partialRectangle;whiteSpace=wrap;html=1;left=0;right=0;fillColor=#dae8fc;strokeColor=#6c8ebf;fontColor=#FF9999;" vertex="1" parent="WIyWlLk6GJQsqaUBKTNV-1">
          <mxGeometry x="53" y="240" width="721" height="20" as="geometry" />
        </mxCell>
        <mxCell id="L1WbMbf6Vr-RHlHyFvd6-19" value="" style="html=1;shadow=0;dashed=0;shape=mxgraph.bootstrap.popover;fillColor=#ffffff;strokeColor=#CCCCCC;dx=35;dy=5;rSize=5;direction=south;whiteSpace=wrap;verticalAlign=bottom;spacing=5;fontSize=10;spacingLeft=5;align=left;" vertex="1" parent="WIyWlLk6GJQsqaUBKTNV-1">
          <mxGeometry x="133" y="350" width="348" height="193.62999999999997" as="geometry" />
        </mxCell>
        <mxCell id="L1WbMbf6Vr-RHlHyFvd6-20" value="Signed-out popup " style="html=1;shadow=0;dashed=0;shape=mxgraph.bootstrap.topButton;rSize=5;fillColor=#F7F7F7;strokeColor=#CCCCCC;perimeter=none;whiteSpace=wrap;resizeWidth=1;align=left;spacing=5;" vertex="1" parent="L1WbMbf6Vr-RHlHyFvd6-19">
          <mxGeometry x="1" width="337.17937499999994" height="25" relative="1" as="geometry">
            <mxPoint x="-339" y="10" as="offset" />
          </mxGeometry>
        </mxCell>
        <mxCell id="L1WbMbf6Vr-RHlHyFvd6-23" value="&lt;font style=&quot;border-color: var(--border-color); font-size: 10px; text-align: left;&quot;&gt;&lt;b style=&quot;border-color: var(--border-color);&quot;&gt;Title&lt;/b&gt;: Signed out&lt;br style=&quot;border-color: var(--border-color);&quot;&gt;&lt;br style=&quot;border-color: var(--border-color);&quot;&gt;&lt;/font&gt;&lt;div style=&quot;border-color: var(--border-color); font-size: 10px; text-align: left;&quot;&gt;&lt;font style=&quot;border-color: var(--border-color); font-size: 11px;&quot;&gt;&lt;b style=&quot;border-color: var(--border-color);&quot;&gt;Message&lt;/b&gt;: You have been signed out. You must sign in again to save changes to this page.&lt;/font&gt;&lt;/div&gt;&lt;div style=&quot;border-color: var(--border-color); font-size: 10px; text-align: left;&quot;&gt;&lt;font style=&quot;border-color: var(--border-color); font-size: 11px;&quot;&gt;&amp;nbsp; &amp;nbsp; &amp;nbsp; &amp;nbsp; &amp;nbsp; &amp;nbsp; &amp;nbsp; &amp;nbsp; &amp;nbsp; &amp;nbsp; &amp;nbsp; &amp;nbsp; &amp;nbsp; &amp;nbsp; &amp;nbsp; &amp;nbsp; &amp;nbsp; &amp;nbsp; &amp;nbsp; &amp;nbsp;&amp;nbsp;&lt;/font&gt;&lt;/div&gt;&lt;div style=&quot;border-color: var(--border-color); font-size: 10px; text-align: left;&quot;&gt;&lt;font style=&quot;border-color: var(--border-color); font-size: 11px;&quot;&gt;If you leave or reload the page, your unsaved changes may be lost.&lt;/font&gt;&lt;/div&gt;" style="rounded=0;whiteSpace=wrap;html=1;strokeColor=#999999;" vertex="1" parent="L1WbMbf6Vr-RHlHyFvd6-19">
          <mxGeometry x="8.7" y="42.22222222222222" width="339.29999999999995" height="105.55555555555556" as="geometry" />
        </mxCell>
        <mxCell id="L1WbMbf6Vr-RHlHyFvd6-24" value="Logout" style="rounded=1;html=1;shadow=0;dashed=0;whiteSpace=wrap;fontSize=11;fillColor=#E6E6E6;align=center;strokeColor=#B3B3B3;fontColor=#333333;" vertex="1" parent="L1WbMbf6Vr-RHlHyFvd6-19">
          <mxGeometry x="41.324999999999996" y="158.33333333333334" width="67.425" height="17.817777777777778" as="geometry" />
        </mxCell>
        <mxCell id="L1WbMbf6Vr-RHlHyFvd6-29" value="Reload Page" style="rounded=1;html=1;shadow=0;dashed=0;whiteSpace=wrap;fontSize=11;fillColor=#E6E6E6;align=center;strokeColor=#B3B3B3;fontColor=#333333;" vertex="1" parent="L1WbMbf6Vr-RHlHyFvd6-19">
          <mxGeometry x="117.44999999999999" y="158.33333333333334" width="67.425" height="17.817777777777778" as="geometry" />
        </mxCell>
        <mxCell id="L1WbMbf6Vr-RHlHyFvd6-30" value="Verify user &amp;amp; continue" style="rounded=1;html=1;shadow=0;dashed=0;whiteSpace=wrap;fontSize=11;fillColor=#E6E6E6;align=center;strokeColor=#B3B3B3;fontColor=#333333;" vertex="1" parent="L1WbMbf6Vr-RHlHyFvd6-19">
          <mxGeometry x="193.575" y="151.41333333333336" width="67.425" height="31.666666666666668" as="geometry" />
        </mxCell>
        <mxCell id="2M6EVnhXuw-ZIvETT8Ou-0" value="Force Logout from all open tab" style="rounded=1;html=1;shadow=0;dashed=0;whiteSpace=wrap;fontSize=11;fillColor=#E6E6E6;align=center;strokeColor=#B3B3B3;fontColor=#333333;" vertex="1" parent="L1WbMbf6Vr-RHlHyFvd6-19">
          <mxGeometry x="267" y="147.77999999999997" width="67.43" height="42.22" as="geometry" />
        </mxCell>
        <mxCell id="L1WbMbf6Vr-RHlHyFvd6-36" style="edgeStyle=orthogonalEdgeStyle;rounded=0;orthogonalLoop=1;jettySize=auto;html=1;" edge="1" parent="WIyWlLk6GJQsqaUBKTNV-1">
          <mxGeometry relative="1" as="geometry">
            <mxPoint x="153" y="200" as="sourcePoint" />
            <mxPoint x="223" y="360" as="targetPoint" />
            <Array as="points">
              <mxPoint x="153" y="310" />
              <mxPoint x="223" y="310" />
              <mxPoint x="223" y="358" />
            </Array>
          </mxGeometry>
        </mxCell>
        <mxCell id="L1WbMbf6Vr-RHlHyFvd6-40" value="&amp;gt; Logged out&lt;br style=&quot;border-color: var(--border-color);&quot;&gt;&lt;span style=&quot;&quot;&gt;&amp;gt; Show login screen&lt;/span&gt;" style="shape=ext;double=1;rounded=1;whiteSpace=wrap;html=1;align=left;" vertex="1" parent="WIyWlLk6GJQsqaUBKTNV-1">
          <mxGeometry x="563" y="420" width="160" height="50" as="geometry" />
        </mxCell>
        <mxCell id="L1WbMbf6Vr-RHlHyFvd6-44" style="edgeStyle=orthogonalEdgeStyle;rounded=0;orthogonalLoop=1;jettySize=auto;html=1;" edge="1" parent="WIyWlLk6GJQsqaUBKTNV-1" source="N0B5e13UZiZrXVN4QuVL-0">
          <mxGeometry relative="1" as="geometry">
            <mxPoint x="663" y="420" as="targetPoint" />
            <Array as="points">
              <mxPoint x="323" y="30" />
              <mxPoint x="733" y="30" />
              <mxPoint x="733" y="360" />
              <mxPoint x="663" y="360" />
              <mxPoint x="663" y="420" />
            </Array>
          </mxGeometry>
        </mxCell>
        <mxCell id="L1WbMbf6Vr-RHlHyFvd6-46" style="edgeStyle=orthogonalEdgeStyle;rounded=0;orthogonalLoop=1;jettySize=auto;html=1;entryX=0.636;entryY=0.025;entryDx=0;entryDy=0;entryPerimeter=0;" edge="1" parent="WIyWlLk6GJQsqaUBKTNV-1" source="N0B5e13UZiZrXVN4QuVL-1" target="L1WbMbf6Vr-RHlHyFvd6-4">
          <mxGeometry relative="1" as="geometry">
            <Array as="points">
              <mxPoint x="490" y="130" />
              <mxPoint x="490" y="130" />
            </Array>
          </mxGeometry>
        </mxCell>
      </root>
    </mxGraphModel>
  </diagram>
  <diagram name="Logout: Signed-out popup button" id="OcJYoiTYj415QyBvKTBU">
    <mxGraphModel dx="1434" dy="836" grid="1" gridSize="10" guides="1" tooltips="1" connect="1" arrows="1" fold="1" page="1" pageScale="1" pageWidth="850" pageHeight="1100" math="0" shadow="0">
      <root>
        <mxCell id="0" />
        <mxCell id="1" parent="0" />
        <mxCell id="0SSY2DDIWu3ykEfyStvG-1" value="" style="html=1;shadow=0;dashed=0;shape=mxgraph.bootstrap.popover;fillColor=#ffffff;strokeColor=#CCCCCC;dx=35;dy=5;rSize=5;direction=south;whiteSpace=wrap;verticalAlign=bottom;spacing=5;fontSize=10;spacingLeft=5;align=left;" parent="1" vertex="1">
          <mxGeometry x="210" y="30" width="348" height="190" as="geometry" />
        </mxCell>
        <mxCell id="0SSY2DDIWu3ykEfyStvG-2" value="Signed-out popup " style="html=1;shadow=0;dashed=0;shape=mxgraph.bootstrap.topButton;rSize=5;fillColor=#F7F7F7;strokeColor=#CCCCCC;perimeter=none;whiteSpace=wrap;resizeWidth=1;align=left;spacing=5;" parent="0SSY2DDIWu3ykEfyStvG-1" vertex="1">
          <mxGeometry x="1" width="337.17937499999994" height="25" relative="1" as="geometry">
            <mxPoint x="-339" y="10" as="offset" />
          </mxGeometry>
        </mxCell>
        <mxCell id="0SSY2DDIWu3ykEfyStvG-3" value="&lt;font style=&quot;border-color: var(--border-color); font-size: 10px; text-align: left;&quot;&gt;&lt;b style=&quot;border-color: var(--border-color);&quot;&gt;Title&lt;/b&gt;: Signed out&lt;br style=&quot;border-color: var(--border-color);&quot;&gt;&lt;br style=&quot;border-color: var(--border-color);&quot;&gt;&lt;/font&gt;&lt;div style=&quot;border-color: var(--border-color); font-size: 10px; text-align: left;&quot;&gt;&lt;font style=&quot;border-color: var(--border-color); font-size: 11px;&quot;&gt;&lt;b style=&quot;border-color: var(--border-color);&quot;&gt;Message&lt;/b&gt;: You have been signed out. You must sign in again to save changes to this page.&lt;/font&gt;&lt;/div&gt;&lt;div style=&quot;border-color: var(--border-color); font-size: 10px; text-align: left;&quot;&gt;&lt;font style=&quot;border-color: var(--border-color); font-size: 11px;&quot;&gt;&amp;nbsp; &amp;nbsp; &amp;nbsp; &amp;nbsp; &amp;nbsp; &amp;nbsp; &amp;nbsp; &amp;nbsp; &amp;nbsp; &amp;nbsp; &amp;nbsp; &amp;nbsp; &amp;nbsp; &amp;nbsp; &amp;nbsp; &amp;nbsp; &amp;nbsp; &amp;nbsp; &amp;nbsp; &amp;nbsp;&amp;nbsp;&lt;/font&gt;&lt;/div&gt;&lt;div style=&quot;border-color: var(--border-color); font-size: 10px; text-align: left;&quot;&gt;&lt;font style=&quot;border-color: var(--border-color); font-size: 11px;&quot;&gt;If you leave or reload the page, your unsaved changes may be lost.&lt;/font&gt;&lt;/div&gt;" style="rounded=0;whiteSpace=wrap;html=1;strokeColor=#999999;" parent="0SSY2DDIWu3ykEfyStvG-1" vertex="1">
          <mxGeometry x="8.7" y="42.22222222222222" width="339.29999999999995" height="105.55555555555556" as="geometry" />
        </mxCell>
        <mxCell id="0SSY2DDIWu3ykEfyStvG-4" value="Logout" style="rounded=1;html=1;shadow=0;dashed=0;whiteSpace=wrap;fontSize=11;fillColor=#E6E6E6;align=center;strokeColor=#B3B3B3;fontColor=#333333;" parent="0SSY2DDIWu3ykEfyStvG-1" vertex="1">
          <mxGeometry x="41.324999999999996" y="158.33333333333334" width="67.425" height="17.817777777777778" as="geometry" />
        </mxCell>
        <mxCell id="0SSY2DDIWu3ykEfyStvG-5" value="Reload Page" style="rounded=1;html=1;shadow=0;dashed=0;whiteSpace=wrap;fontSize=11;fillColor=#E6E6E6;align=center;strokeColor=#B3B3B3;fontColor=#333333;" parent="0SSY2DDIWu3ykEfyStvG-1" vertex="1">
          <mxGeometry x="117.44999999999999" y="158.33333333333334" width="67.425" height="17.817777777777778" as="geometry" />
        </mxCell>
        <mxCell id="0SSY2DDIWu3ykEfyStvG-6" value="Verify user &amp;amp; continue" style="rounded=1;html=1;shadow=0;dashed=0;whiteSpace=wrap;fontSize=11;fillColor=#E6E6E6;align=center;strokeColor=#B3B3B3;fontColor=#333333;" parent="0SSY2DDIWu3ykEfyStvG-1" vertex="1">
          <mxGeometry x="193.575" y="151.41333333333336" width="67.425" height="31.666666666666668" as="geometry" />
        </mxCell>
        <mxCell id="0SSY2DDIWu3ykEfyStvG-7" value="Force Logout from all open tab" style="rounded=1;html=1;shadow=0;dashed=0;whiteSpace=wrap;fontSize=11;fillColor=#E6E6E6;align=center;strokeColor=#B3B3B3;fontColor=#333333;" parent="0SSY2DDIWu3ykEfyStvG-1" vertex="1">
          <mxGeometry x="269.7" y="147.78" width="67.43" height="42.22" as="geometry" />
        </mxCell>
        <mxCell id="pYKS1l6ywKELJRQ6OC6a-2" value="" style="shape=flexArrow;endArrow=classic;html=1;rounded=0;entryX=0;entryY=0.5;entryDx=0;entryDy=0;" parent="1" target="0SSY2DDIWu3ykEfyStvG-4" edge="1">
          <mxGeometry width="50" height="50" relative="1" as="geometry">
            <mxPoint x="110" y="230" as="sourcePoint" />
            <mxPoint x="450" y="300" as="targetPoint" />
            <Array as="points">
              <mxPoint x="110" y="230" />
            </Array>
          </mxGeometry>
        </mxCell>
        <mxCell id="MljtkG6-oPbYRU4QMhCZ-11" style="edgeStyle=orthogonalEdgeStyle;rounded=0;orthogonalLoop=1;jettySize=auto;html=1;entryX=0.25;entryY=0;entryDx=0;entryDy=0;" parent="1" source="MljtkG6-oPbYRU4QMhCZ-12" target="MljtkG6-oPbYRU4QMhCZ-16" edge="1">
          <mxGeometry relative="1" as="geometry">
            <Array as="points">
              <mxPoint x="158" y="360" />
            </Array>
          </mxGeometry>
        </mxCell>
        <mxCell id="MljtkG6-oPbYRU4QMhCZ-12" value="Tab 1" style="rounded=1;whiteSpace=wrap;html=1;fontSize=12;glass=0;strokeWidth=1;shadow=0;" parent="1" vertex="1">
          <mxGeometry x="123" y="300" width="120" height="40" as="geometry" />
        </mxCell>
        <mxCell id="MljtkG6-oPbYRU4QMhCZ-13" value="Tab 2" style="rounded=1;whiteSpace=wrap;html=1;fontSize=12;glass=0;strokeWidth=1;shadow=0;" parent="1" vertex="1">
          <mxGeometry x="273" y="300" width="120" height="40" as="geometry" />
        </mxCell>
        <mxCell id="MljtkG6-oPbYRU4QMhCZ-14" value="Tab 3" style="rounded=1;whiteSpace=wrap;html=1;fontSize=12;glass=0;strokeWidth=1;shadow=0;" parent="1" vertex="1">
          <mxGeometry x="423" y="300" width="120" height="40" as="geometry" />
        </mxCell>
        <mxCell id="MljtkG6-oPbYRU4QMhCZ-15" value="Any External Tab" style="rounded=1;whiteSpace=wrap;html=1;fontSize=12;glass=0;strokeWidth=1;shadow=0;" parent="1" vertex="1">
          <mxGeometry x="573" y="300" width="120" height="40" as="geometry" />
        </mxCell>
        <mxCell id="MljtkG6-oPbYRU4QMhCZ-16" value="Make form Dirty" style="html=1;whiteSpace=wrap;container=1;recursiveResize=0;collapsible=0;" parent="1" vertex="1">
          <mxGeometry x="130" y="380" width="110" height="40" as="geometry" />
        </mxCell>
        <mxCell id="MljtkG6-oPbYRU4QMhCZ-17" value="" style="triangle;html=1;whiteSpace=wrap;" parent="MljtkG6-oPbYRU4QMhCZ-16" vertex="1">
          <mxGeometry y="10" width="10" height="20" as="geometry" />
        </mxCell>
        <mxCell id="MljtkG6-oPbYRU4QMhCZ-18" value="Make form Dirty" style="html=1;whiteSpace=wrap;container=1;recursiveResize=0;collapsible=0;" parent="1" vertex="1">
          <mxGeometry x="430" y="380" width="110" height="40" as="geometry" />
        </mxCell>
        <mxCell id="MljtkG6-oPbYRU4QMhCZ-19" value="" style="triangle;html=1;whiteSpace=wrap;" parent="MljtkG6-oPbYRU4QMhCZ-18" vertex="1">
          <mxGeometry y="10" width="10" height="20" as="geometry" />
        </mxCell>
        <mxCell id="MljtkG6-oPbYRU4QMhCZ-20" style="edgeStyle=orthogonalEdgeStyle;rounded=0;orthogonalLoop=1;jettySize=auto;html=1;entryX=0.636;entryY=0.025;entryDx=0;entryDy=0;entryPerimeter=0;" parent="1" source="MljtkG6-oPbYRU4QMhCZ-14" target="MljtkG6-oPbYRU4QMhCZ-18" edge="1">
          <mxGeometry relative="1" as="geometry">
            <Array as="points">
              <mxPoint x="500" y="350" />
              <mxPoint x="500" y="350" />
            </Array>
          </mxGeometry>
        </mxCell>
        <mxCell id="lteJlb5JGfdEoEopA9Ib-1" value="&lt;b&gt;&lt;font style=&quot;font-size: 14px;&quot;&gt;Logout action perfomed from any application.&lt;/font&gt;&lt;/b&gt;" style="shape=partialRectangle;whiteSpace=wrap;html=1;left=0;right=0;fillColor=#dae8fc;strokeColor=#6c8ebf;fontColor=#FF9999;" parent="1" vertex="1">
          <mxGeometry x="80" y="450" width="721" height="20" as="geometry" />
        </mxCell>
        <mxCell id="lteJlb5JGfdEoEopA9Ib-2" value="" style="endArrow=none;html=1;rounded=0;" parent="1" edge="1">
          <mxGeometry width="50" height="50" relative="1" as="geometry">
            <mxPoint x="10" y="240" as="sourcePoint" />
            <mxPoint x="840" y="240" as="targetPoint" />
          </mxGeometry>
        </mxCell>
        <mxCell id="lteJlb5JGfdEoEopA9Ib-10" value="" style="html=1;shadow=0;dashed=0;shape=mxgraph.bootstrap.popover;fillColor=#ffffff;strokeColor=#CCCCCC;dx=35;dy=5;rSize=5;direction=south;whiteSpace=wrap;verticalAlign=bottom;spacing=5;fontSize=10;spacingLeft=5;align=left;" parent="1" vertex="1">
          <mxGeometry x="70" y="490" width="140" height="110" as="geometry" />
        </mxCell>
        <mxCell id="lteJlb5JGfdEoEopA9Ib-11" value="Signed-out popup " style="html=1;shadow=0;dashed=0;shape=mxgraph.bootstrap.topButton;rSize=5;fillColor=#F7F7F7;strokeColor=#CCCCCC;perimeter=none;whiteSpace=wrap;resizeWidth=1;align=left;spacing=5;" parent="lteJlb5JGfdEoEopA9Ib-10" vertex="1">
          <mxGeometry x="1" width="131.18110236220474" height="60" relative="1" as="geometry">
            <mxPoint x="-133" y="5" as="offset" />
          </mxGeometry>
        </mxCell>
        <mxCell id="lteJlb5JGfdEoEopA9Ib-13" value="Logout" style="rounded=1;html=1;shadow=0;dashed=0;whiteSpace=wrap;fontSize=11;fillColor=#E6E6E6;align=center;strokeColor=#B3B3B3;fontColor=#333333;" parent="lteJlb5JGfdEoEopA9Ib-10" vertex="1">
          <mxGeometry x="7.275590551181102" y="80" width="125.44881889763779" height="17.89" as="geometry" />
        </mxCell>
        <mxCell id="Qk8T2U3e55pD6HU3-xAW-1" style="edgeStyle=orthogonalEdgeStyle;rounded=0;orthogonalLoop=1;jettySize=auto;html=1;entryX=0.175;entryY=-0.033;entryDx=0;entryDy=0;entryPerimeter=0;" parent="1" source="MljtkG6-oPbYRU4QMhCZ-16" target="lteJlb5JGfdEoEopA9Ib-11" edge="1">
          <mxGeometry relative="1" as="geometry">
            <Array as="points">
              <mxPoint x="185" y="440" />
              <mxPoint x="100" y="440" />
            </Array>
          </mxGeometry>
        </mxCell>
        <mxCell id="Qk8T2U3e55pD6HU3-xAW-3" style="edgeStyle=orthogonalEdgeStyle;rounded=0;orthogonalLoop=1;jettySize=auto;html=1;entryX=0.492;entryY=0.95;entryDx=0;entryDy=0;entryPerimeter=0;" parent="1" edge="1">
          <mxGeometry relative="1" as="geometry">
            <mxPoint x="362.01199999999994" y="470" as="targetPoint" />
            <Array as="points">
              <mxPoint x="362" y="590" />
            </Array>
            <mxPoint x="203" y="590" as="sourcePoint" />
          </mxGeometry>
        </mxCell>
        <mxCell id="Qgklg3T1abYWNDE-EoYe-1" value="&lt;p style=&quot;line-height: 110%;&quot;&gt;1. Reset form - Data loss for current form.&lt;/p&gt;&lt;p style=&quot;line-height: 110%;&quot;&gt;2. Check Logout impact in Previous tab named &quot;Logout&quot;&lt;/p&gt;" style="edgeLabel;html=1;align=center;verticalAlign=middle;resizable=0;points=[];" parent="Qk8T2U3e55pD6HU3-xAW-3" vertex="1" connectable="0">
          <mxGeometry x="0.5123" y="1" relative="1" as="geometry">
            <mxPoint x="7" as="offset" />
          </mxGeometry>
        </mxCell>
        <mxCell id="s-ZsfETxkz_tZ44P34QU-4" value="Signed-out popup " style="html=1;shadow=0;dashed=0;shape=mxgraph.bootstrap.topButton;rSize=5;fillColor=#F7F7F7;strokeColor=#CCCCCC;perimeter=none;whiteSpace=wrap;resizeWidth=1;align=left;spacing=5;" vertex="1" parent="1">
          <mxGeometry x="620" y="490" width="131.18110236220474" height="60" as="geometry" />
        </mxCell>
        <mxCell id="s-ZsfETxkz_tZ44P34QU-5" style="edgeStyle=orthogonalEdgeStyle;rounded=0;orthogonalLoop=1;jettySize=auto;html=1;entryX=0.358;entryY=0;entryDx=0;entryDy=0;entryPerimeter=0;" edge="1" parent="1" source="MljtkG6-oPbYRU4QMhCZ-18" target="s-ZsfETxkz_tZ44P34QU-4">
          <mxGeometry relative="1" as="geometry">
            <mxPoint x="671" y="491" as="targetPoint" />
          </mxGeometry>
        </mxCell>
      </root>
    </mxGraphModel>
  </diagram>
  <diagram name="Reload Page: Signed-out popup button" id="U_f4lC0T7ZG_ZxKvkQpu">
    <mxGraphModel grid="1" page="1" gridSize="10" guides="1" tooltips="1" connect="1" arrows="1" fold="1" pageScale="1" pageWidth="850" pageHeight="1100" math="0" shadow="0">
      <root>
        <mxCell id="0IpkJHLkALiRL_p6m6M2-0" />
        <mxCell id="0IpkJHLkALiRL_p6m6M2-1" parent="0IpkJHLkALiRL_p6m6M2-0" />
        <mxCell id="0IpkJHLkALiRL_p6m6M2-2" value="" style="html=1;shadow=0;dashed=0;shape=mxgraph.bootstrap.popover;fillColor=#ffffff;strokeColor=#CCCCCC;dx=35;dy=5;rSize=5;direction=south;whiteSpace=wrap;verticalAlign=bottom;spacing=5;fontSize=10;spacingLeft=5;align=left;" parent="0IpkJHLkALiRL_p6m6M2-1" vertex="1">
          <mxGeometry x="210" y="30" width="348" height="190" as="geometry" />
        </mxCell>
        <mxCell id="0IpkJHLkALiRL_p6m6M2-3" value="Signed-out popup " style="html=1;shadow=0;dashed=0;shape=mxgraph.bootstrap.topButton;rSize=5;fillColor=#F7F7F7;strokeColor=#CCCCCC;perimeter=none;whiteSpace=wrap;resizeWidth=1;align=left;spacing=5;" parent="0IpkJHLkALiRL_p6m6M2-2" vertex="1">
          <mxGeometry x="1" width="337.17937499999994" height="25" relative="1" as="geometry">
            <mxPoint x="-339" y="10" as="offset" />
          </mxGeometry>
        </mxCell>
        <mxCell id="0IpkJHLkALiRL_p6m6M2-4" value="&lt;font style=&quot;border-color: var(--border-color); font-size: 10px; text-align: left;&quot;&gt;&lt;b style=&quot;border-color: var(--border-color);&quot;&gt;Title&lt;/b&gt;: Signed out&lt;br style=&quot;border-color: var(--border-color);&quot;&gt;&lt;br style=&quot;border-color: var(--border-color);&quot;&gt;&lt;/font&gt;&lt;div style=&quot;border-color: var(--border-color); font-size: 10px; text-align: left;&quot;&gt;&lt;font style=&quot;border-color: var(--border-color); font-size: 11px;&quot;&gt;&lt;b style=&quot;border-color: var(--border-color);&quot;&gt;Message&lt;/b&gt;: You have been signed out. You must sign in again to save changes to this page.&lt;/font&gt;&lt;/div&gt;&lt;div style=&quot;border-color: var(--border-color); font-size: 10px; text-align: left;&quot;&gt;&lt;font style=&quot;border-color: var(--border-color); font-size: 11px;&quot;&gt;&amp;nbsp; &amp;nbsp; &amp;nbsp; &amp;nbsp; &amp;nbsp; &amp;nbsp; &amp;nbsp; &amp;nbsp; &amp;nbsp; &amp;nbsp; &amp;nbsp; &amp;nbsp; &amp;nbsp; &amp;nbsp; &amp;nbsp; &amp;nbsp; &amp;nbsp; &amp;nbsp; &amp;nbsp; &amp;nbsp;&amp;nbsp;&lt;/font&gt;&lt;/div&gt;&lt;div style=&quot;border-color: var(--border-color); font-size: 10px; text-align: left;&quot;&gt;&lt;font style=&quot;border-color: var(--border-color); font-size: 11px;&quot;&gt;If you leave or reload the page, your unsaved changes may be lost.&lt;/font&gt;&lt;/div&gt;" style="rounded=0;whiteSpace=wrap;html=1;strokeColor=#999999;" parent="0IpkJHLkALiRL_p6m6M2-2" vertex="1">
          <mxGeometry x="8.7" y="42.22222222222222" width="339.29999999999995" height="105.55555555555556" as="geometry" />
        </mxCell>
        <mxCell id="0IpkJHLkALiRL_p6m6M2-5" value="Logout" style="rounded=1;html=1;shadow=0;dashed=0;whiteSpace=wrap;fontSize=11;fillColor=#E6E6E6;align=center;strokeColor=#B3B3B3;fontColor=#333333;" parent="0IpkJHLkALiRL_p6m6M2-2" vertex="1">
          <mxGeometry x="41.324999999999996" y="158.33333333333334" width="67.425" height="17.817777777777778" as="geometry" />
        </mxCell>
        <mxCell id="0IpkJHLkALiRL_p6m6M2-6" value="Reload Page" style="rounded=1;html=1;shadow=0;dashed=0;whiteSpace=wrap;fontSize=11;fillColor=#E6E6E6;align=center;strokeColor=#B3B3B3;fontColor=#333333;" parent="0IpkJHLkALiRL_p6m6M2-2" vertex="1">
          <mxGeometry x="117.44999999999999" y="158.33333333333334" width="67.425" height="17.817777777777778" as="geometry" />
        </mxCell>
        <mxCell id="0IpkJHLkALiRL_p6m6M2-7" value="Verify user &amp;amp; continue" style="rounded=1;html=1;shadow=0;dashed=0;whiteSpace=wrap;fontSize=11;fillColor=#E6E6E6;align=center;strokeColor=#B3B3B3;fontColor=#333333;" parent="0IpkJHLkALiRL_p6m6M2-2" vertex="1">
          <mxGeometry x="193.575" y="151.41333333333336" width="67.425" height="31.666666666666668" as="geometry" />
        </mxCell>
        <mxCell id="0IpkJHLkALiRL_p6m6M2-8" value="Logout" style="rounded=1;html=1;shadow=0;dashed=0;whiteSpace=wrap;fontSize=11;fillColor=#E6E6E6;align=center;strokeColor=#B3B3B3;fontColor=#333333;" parent="0IpkJHLkALiRL_p6m6M2-2" vertex="1">
          <mxGeometry x="269.7" y="158.33333333333334" width="67.425" height="17.817777777777778" as="geometry" />
        </mxCell>
        <mxCell id="0IpkJHLkALiRL_p6m6M2-9" value="" style="shape=flexArrow;endArrow=classic;html=1;rounded=0;entryX=0.25;entryY=1;entryDx=0;entryDy=0;" parent="0IpkJHLkALiRL_p6m6M2-1" target="0IpkJHLkALiRL_p6m6M2-6" edge="1">
          <mxGeometry width="50" height="50" relative="1" as="geometry">
            <mxPoint x="110" y="230" as="sourcePoint" />
            <mxPoint x="450" y="300" as="targetPoint" />
            <Array as="points">
              <mxPoint x="110" y="230" />
              <mxPoint x="340" y="230" />
            </Array>
          </mxGeometry>
        </mxCell>
        <mxCell id="0IpkJHLkALiRL_p6m6M2-10" style="edgeStyle=orthogonalEdgeStyle;rounded=0;orthogonalLoop=1;jettySize=auto;html=1;entryX=0.25;entryY=0;entryDx=0;entryDy=0;" parent="0IpkJHLkALiRL_p6m6M2-1" source="0IpkJHLkALiRL_p6m6M2-11" target="0IpkJHLkALiRL_p6m6M2-15" edge="1">
          <mxGeometry relative="1" as="geometry">
            <Array as="points">
              <mxPoint x="158" y="360" />
            </Array>
          </mxGeometry>
        </mxCell>
        <mxCell id="0IpkJHLkALiRL_p6m6M2-11" value="Tab 1" style="rounded=1;whiteSpace=wrap;html=1;fontSize=12;glass=0;strokeWidth=1;shadow=0;" parent="0IpkJHLkALiRL_p6m6M2-1" vertex="1">
          <mxGeometry x="123" y="300" width="120" height="40" as="geometry" />
        </mxCell>
        <mxCell id="0IpkJHLkALiRL_p6m6M2-12" value="Tab 2" style="rounded=1;whiteSpace=wrap;html=1;fontSize=12;glass=0;strokeWidth=1;shadow=0;" parent="0IpkJHLkALiRL_p6m6M2-1" vertex="1">
          <mxGeometry x="273" y="300" width="120" height="40" as="geometry" />
        </mxCell>
        <mxCell id="0IpkJHLkALiRL_p6m6M2-13" value="Tab 3" style="rounded=1;whiteSpace=wrap;html=1;fontSize=12;glass=0;strokeWidth=1;shadow=0;" parent="0IpkJHLkALiRL_p6m6M2-1" vertex="1">
          <mxGeometry x="423" y="300" width="120" height="40" as="geometry" />
        </mxCell>
        <mxCell id="0IpkJHLkALiRL_p6m6M2-14" value="Any External Tab" style="rounded=1;whiteSpace=wrap;html=1;fontSize=12;glass=0;strokeWidth=1;shadow=0;" parent="0IpkJHLkALiRL_p6m6M2-1" vertex="1">
          <mxGeometry x="573" y="300" width="120" height="40" as="geometry" />
        </mxCell>
        <mxCell id="0IpkJHLkALiRL_p6m6M2-15" value="Make form Dirty" style="html=1;whiteSpace=wrap;container=1;recursiveResize=0;collapsible=0;" parent="0IpkJHLkALiRL_p6m6M2-1" vertex="1">
          <mxGeometry x="130" y="380" width="110" height="40" as="geometry" />
        </mxCell>
        <mxCell id="0IpkJHLkALiRL_p6m6M2-16" value="" style="triangle;html=1;whiteSpace=wrap;" parent="0IpkJHLkALiRL_p6m6M2-15" vertex="1">
          <mxGeometry y="10" width="10" height="20" as="geometry" />
        </mxCell>
        <mxCell id="0IpkJHLkALiRL_p6m6M2-17" value="Make form Dirty" style="html=1;whiteSpace=wrap;container=1;recursiveResize=0;collapsible=0;" parent="0IpkJHLkALiRL_p6m6M2-1" vertex="1">
          <mxGeometry x="430" y="380" width="110" height="40" as="geometry" />
        </mxCell>
        <mxCell id="0IpkJHLkALiRL_p6m6M2-18" value="" style="triangle;html=1;whiteSpace=wrap;" parent="0IpkJHLkALiRL_p6m6M2-17" vertex="1">
          <mxGeometry y="10" width="10" height="20" as="geometry" />
        </mxCell>
        <mxCell id="0IpkJHLkALiRL_p6m6M2-19" style="edgeStyle=orthogonalEdgeStyle;rounded=0;orthogonalLoop=1;jettySize=auto;html=1;entryX=0.636;entryY=0.025;entryDx=0;entryDy=0;entryPerimeter=0;" parent="0IpkJHLkALiRL_p6m6M2-1" source="0IpkJHLkALiRL_p6m6M2-13" target="0IpkJHLkALiRL_p6m6M2-17" edge="1">
          <mxGeometry relative="1" as="geometry">
            <Array as="points">
              <mxPoint x="500" y="350" />
              <mxPoint x="500" y="350" />
            </Array>
          </mxGeometry>
        </mxCell>
        <mxCell id="0IpkJHLkALiRL_p6m6M2-20" value="&lt;b&gt;&lt;font style=&quot;font-size: 14px;&quot;&gt;Logout action perfomed from any application.&lt;/font&gt;&lt;/b&gt;" style="shape=partialRectangle;whiteSpace=wrap;html=1;left=0;right=0;fillColor=#dae8fc;strokeColor=#6c8ebf;fontColor=#FF9999;" parent="0IpkJHLkALiRL_p6m6M2-1" vertex="1">
          <mxGeometry x="80" y="450" width="721" height="20" as="geometry" />
        </mxCell>
        <mxCell id="0IpkJHLkALiRL_p6m6M2-21" value="" style="endArrow=none;html=1;rounded=0;" parent="0IpkJHLkALiRL_p6m6M2-1" edge="1">
          <mxGeometry width="50" height="50" relative="1" as="geometry">
            <mxPoint x="10" y="240" as="sourcePoint" />
            <mxPoint x="840" y="240" as="targetPoint" />
          </mxGeometry>
        </mxCell>
        <mxCell id="0IpkJHLkALiRL_p6m6M2-22" value="" style="html=1;shadow=0;dashed=0;shape=mxgraph.bootstrap.popover;fillColor=#ffffff;strokeColor=#CCCCCC;dx=35;dy=5;rSize=5;direction=south;whiteSpace=wrap;verticalAlign=bottom;spacing=5;fontSize=10;spacingLeft=5;align=left;" parent="0IpkJHLkALiRL_p6m6M2-1" vertex="1">
          <mxGeometry x="70" y="490" width="140" height="110" as="geometry" />
        </mxCell>
        <mxCell id="0IpkJHLkALiRL_p6m6M2-23" value="Signed-out popup " style="html=1;shadow=0;dashed=0;shape=mxgraph.bootstrap.topButton;rSize=5;fillColor=#F7F7F7;strokeColor=#CCCCCC;perimeter=none;whiteSpace=wrap;resizeWidth=1;align=left;spacing=5;" parent="0IpkJHLkALiRL_p6m6M2-22" vertex="1">
          <mxGeometry x="1" width="131.18110236220474" height="60" relative="1" as="geometry">
            <mxPoint x="-133" y="5" as="offset" />
          </mxGeometry>
        </mxCell>
        <mxCell id="0IpkJHLkALiRL_p6m6M2-24" value="Reload Page" style="rounded=1;html=1;shadow=0;dashed=0;whiteSpace=wrap;fontSize=11;fillColor=#E6E6E6;align=center;strokeColor=#B3B3B3;fontColor=#333333;" parent="0IpkJHLkALiRL_p6m6M2-22" vertex="1">
          <mxGeometry x="7.275590551181102" y="80" width="125.44881889763779" height="17.89" as="geometry" />
        </mxCell>
        <mxCell id="0IpkJHLkALiRL_p6m6M2-25" style="edgeStyle=orthogonalEdgeStyle;rounded=0;orthogonalLoop=1;jettySize=auto;html=1;entryX=0.175;entryY=-0.033;entryDx=0;entryDy=0;entryPerimeter=0;" parent="0IpkJHLkALiRL_p6m6M2-1" source="0IpkJHLkALiRL_p6m6M2-15" target="0IpkJHLkALiRL_p6m6M2-23" edge="1">
          <mxGeometry relative="1" as="geometry">
            <Array as="points">
              <mxPoint x="185" y="440" />
              <mxPoint x="100" y="440" />
            </Array>
          </mxGeometry>
        </mxCell>
        <mxCell id="o75oFh_D6TxSjLjvosId-0" value="&lt;p style=&quot;border-color: var(--border-color); font-size: 11px; line-height: 12.1px;&quot;&gt;1. Reset form - Data loss for current form.&lt;/p&gt;&lt;p style=&quot;border-color: var(--border-color); font-size: 11px; line-height: 12.1px;&quot;&gt;2. Reload Page: It will sync login data form other tab. (sync data from localstorge / Identityserver)&lt;/p&gt;&lt;div&gt;&lt;br&gt;&lt;/div&gt;" style="rounded=1;whiteSpace=wrap;html=1;" parent="0IpkJHLkALiRL_p6m6M2-1" vertex="1">
          <mxGeometry x="40" y="650" width="310" height="70" as="geometry" />
        </mxCell>
        <mxCell id="0IpkJHLkALiRL_p6m6M2-28" value="Signed-out popup " style="html=1;shadow=0;dashed=0;shape=mxgraph.bootstrap.topButton;rSize=5;fillColor=#F7F7F7;strokeColor=#CCCCCC;perimeter=none;whiteSpace=wrap;resizeWidth=1;align=left;spacing=5;" parent="0IpkJHLkALiRL_p6m6M2-1" vertex="1">
          <mxGeometry x="620" y="490" width="131.18110236220474" height="60" as="geometry" />
        </mxCell>
        <mxCell id="0IpkJHLkALiRL_p6m6M2-29" style="edgeStyle=orthogonalEdgeStyle;rounded=0;orthogonalLoop=1;jettySize=auto;html=1;entryX=0.358;entryY=0;entryDx=0;entryDy=0;entryPerimeter=0;" parent="0IpkJHLkALiRL_p6m6M2-1" source="0IpkJHLkALiRL_p6m6M2-17" target="0IpkJHLkALiRL_p6m6M2-28" edge="1">
          <mxGeometry relative="1" as="geometry">
            <mxPoint x="671" y="491" as="targetPoint" />
          </mxGeometry>
        </mxCell>
        <mxCell id="o75oFh_D6TxSjLjvosId-1" style="edgeStyle=orthogonalEdgeStyle;rounded=0;orthogonalLoop=1;jettySize=auto;html=1;entryX=0.3;entryY=0.029;entryDx=0;entryDy=0;entryPerimeter=0;" parent="0IpkJHLkALiRL_p6m6M2-1" source="0IpkJHLkALiRL_p6m6M2-24" target="o75oFh_D6TxSjLjvosId-0" edge="1">
          <mxGeometry relative="1" as="geometry" />
        </mxCell>
        <mxCell id="IdqWiKOWRCPpM_c9sqyG-0" value="" style="html=1;shadow=0;dashed=0;shape=mxgraph.bootstrap.popover;fillColor=#ffffff;strokeColor=#CCCCCC;dx=35;dy=5;rSize=5;direction=south;whiteSpace=wrap;verticalAlign=bottom;spacing=5;fontSize=10;spacingLeft=5;align=left;" parent="0IpkJHLkALiRL_p6m6M2-1" vertex="1">
          <mxGeometry x="210" y="30" width="348" height="190" as="geometry" />
        </mxCell>
        <mxCell id="IdqWiKOWRCPpM_c9sqyG-1" value="Signed-out popup " style="html=1;shadow=0;dashed=0;shape=mxgraph.bootstrap.topButton;rSize=5;fillColor=#F7F7F7;strokeColor=#CCCCCC;perimeter=none;whiteSpace=wrap;resizeWidth=1;align=left;spacing=5;" parent="IdqWiKOWRCPpM_c9sqyG-0" vertex="1">
          <mxGeometry x="1" width="337.17937499999994" height="25" relative="1" as="geometry">
            <mxPoint x="-339" y="10" as="offset" />
          </mxGeometry>
        </mxCell>
        <mxCell id="IdqWiKOWRCPpM_c9sqyG-2" value="&lt;font style=&quot;border-color: var(--border-color); font-size: 10px; text-align: left;&quot;&gt;&lt;b style=&quot;border-color: var(--border-color);&quot;&gt;Title&lt;/b&gt;: Signed out&lt;br style=&quot;border-color: var(--border-color);&quot;&gt;&lt;br style=&quot;border-color: var(--border-color);&quot;&gt;&lt;/font&gt;&lt;div style=&quot;border-color: var(--border-color); font-size: 10px; text-align: left;&quot;&gt;&lt;font style=&quot;border-color: var(--border-color); font-size: 11px;&quot;&gt;&lt;b style=&quot;border-color: var(--border-color);&quot;&gt;Message&lt;/b&gt;: You have been signed out. You must sign in again to save changes to this page.&lt;/font&gt;&lt;/div&gt;&lt;div style=&quot;border-color: var(--border-color); font-size: 10px; text-align: left;&quot;&gt;&lt;font style=&quot;border-color: var(--border-color); font-size: 11px;&quot;&gt;&amp;nbsp; &amp;nbsp; &amp;nbsp; &amp;nbsp; &amp;nbsp; &amp;nbsp; &amp;nbsp; &amp;nbsp; &amp;nbsp; &amp;nbsp; &amp;nbsp; &amp;nbsp; &amp;nbsp; &amp;nbsp; &amp;nbsp; &amp;nbsp; &amp;nbsp; &amp;nbsp; &amp;nbsp; &amp;nbsp;&amp;nbsp;&lt;/font&gt;&lt;/div&gt;&lt;div style=&quot;border-color: var(--border-color); font-size: 10px; text-align: left;&quot;&gt;&lt;font style=&quot;border-color: var(--border-color); font-size: 11px;&quot;&gt;If you leave or reload the page, your unsaved changes may be lost.&lt;/font&gt;&lt;/div&gt;" style="rounded=0;whiteSpace=wrap;html=1;strokeColor=#999999;" parent="IdqWiKOWRCPpM_c9sqyG-0" vertex="1">
          <mxGeometry x="8.7" y="42.22222222222222" width="339.29999999999995" height="105.55555555555556" as="geometry" />
        </mxCell>
        <mxCell id="IdqWiKOWRCPpM_c9sqyG-3" value="Logout" style="rounded=1;html=1;shadow=0;dashed=0;whiteSpace=wrap;fontSize=11;fillColor=#E6E6E6;align=center;strokeColor=#B3B3B3;fontColor=#333333;" parent="IdqWiKOWRCPpM_c9sqyG-0" vertex="1">
          <mxGeometry x="41.324999999999996" y="158.33333333333334" width="67.425" height="17.817777777777778" as="geometry" />
        </mxCell>
        <mxCell id="IdqWiKOWRCPpM_c9sqyG-4" value="Reload Page" style="rounded=1;html=1;shadow=0;dashed=0;whiteSpace=wrap;fontSize=11;fillColor=#E6E6E6;align=center;strokeColor=#B3B3B3;fontColor=#333333;" parent="IdqWiKOWRCPpM_c9sqyG-0" vertex="1">
          <mxGeometry x="117.44999999999999" y="158.33333333333334" width="67.425" height="17.817777777777778" as="geometry" />
        </mxCell>
        <mxCell id="IdqWiKOWRCPpM_c9sqyG-5" value="Verify user &amp;amp; continue" style="rounded=1;html=1;shadow=0;dashed=0;whiteSpace=wrap;fontSize=11;fillColor=#E6E6E6;align=center;strokeColor=#B3B3B3;fontColor=#333333;" parent="IdqWiKOWRCPpM_c9sqyG-0" vertex="1">
          <mxGeometry x="193.575" y="151.41333333333336" width="67.425" height="31.666666666666668" as="geometry" />
        </mxCell>
        <mxCell id="IdqWiKOWRCPpM_c9sqyG-6" value="Force Logout from all open tab" style="rounded=1;html=1;shadow=0;dashed=0;whiteSpace=wrap;fontSize=11;fillColor=#E6E6E6;align=center;strokeColor=#B3B3B3;fontColor=#333333;" parent="IdqWiKOWRCPpM_c9sqyG-0" vertex="1">
          <mxGeometry x="270" y="147.78" width="67.43" height="42.22" as="geometry" />
        </mxCell>
      </root>
    </mxGraphModel>
  </diagram>
  <diagram name="Verify user &amp; continue: Signed-out popup button" id="yZ6dL4hh97hqa_ev6dL5">
    <mxGraphModel dx="1434" dy="836" grid="1" gridSize="10" guides="1" tooltips="1" connect="1" arrows="1" fold="1" page="1" pageScale="1" pageWidth="850" pageHeight="1100" math="0" shadow="0">
      <root>
        <mxCell id="kttav1l3g9CmBdrCRdfj-0" />
        <mxCell id="kttav1l3g9CmBdrCRdfj-1" parent="kttav1l3g9CmBdrCRdfj-0" />
        <mxCell id="kttav1l3g9CmBdrCRdfj-2" value="" style="html=1;shadow=0;dashed=0;shape=mxgraph.bootstrap.popover;fillColor=#ffffff;strokeColor=#CCCCCC;dx=35;dy=5;rSize=5;direction=south;whiteSpace=wrap;verticalAlign=bottom;spacing=5;fontSize=10;spacingLeft=5;align=left;" vertex="1" parent="kttav1l3g9CmBdrCRdfj-1">
          <mxGeometry x="210" y="30" width="348" height="190" as="geometry" />
        </mxCell>
        <mxCell id="kttav1l3g9CmBdrCRdfj-3" value="Signed-out popup " style="html=1;shadow=0;dashed=0;shape=mxgraph.bootstrap.topButton;rSize=5;fillColor=#F7F7F7;strokeColor=#CCCCCC;perimeter=none;whiteSpace=wrap;resizeWidth=1;align=left;spacing=5;" vertex="1" parent="kttav1l3g9CmBdrCRdfj-2">
          <mxGeometry x="1" width="337.17937499999994" height="25" relative="1" as="geometry">
            <mxPoint x="-339" y="10" as="offset" />
          </mxGeometry>
        </mxCell>
        <mxCell id="kttav1l3g9CmBdrCRdfj-4" value="&lt;font style=&quot;border-color: var(--border-color); font-size: 10px; text-align: left;&quot;&gt;&lt;b style=&quot;border-color: var(--border-color);&quot;&gt;Title&lt;/b&gt;: Signed out&lt;br style=&quot;border-color: var(--border-color);&quot;&gt;&lt;br style=&quot;border-color: var(--border-color);&quot;&gt;&lt;/font&gt;&lt;div style=&quot;border-color: var(--border-color); font-size: 10px; text-align: left;&quot;&gt;&lt;font style=&quot;border-color: var(--border-color); font-size: 11px;&quot;&gt;&lt;b style=&quot;border-color: var(--border-color);&quot;&gt;Message&lt;/b&gt;: You have been signed out. You must sign in again to save changes to this page.&lt;/font&gt;&lt;/div&gt;&lt;div style=&quot;border-color: var(--border-color); font-size: 10px; text-align: left;&quot;&gt;&lt;font style=&quot;border-color: var(--border-color); font-size: 11px;&quot;&gt;&amp;nbsp; &amp;nbsp; &amp;nbsp; &amp;nbsp; &amp;nbsp; &amp;nbsp; &amp;nbsp; &amp;nbsp; &amp;nbsp; &amp;nbsp; &amp;nbsp; &amp;nbsp; &amp;nbsp; &amp;nbsp; &amp;nbsp; &amp;nbsp; &amp;nbsp; &amp;nbsp; &amp;nbsp; &amp;nbsp;&amp;nbsp;&lt;/font&gt;&lt;/div&gt;&lt;div style=&quot;border-color: var(--border-color); font-size: 10px; text-align: left;&quot;&gt;&lt;font style=&quot;border-color: var(--border-color); font-size: 11px;&quot;&gt;If you leave or reload the page, your unsaved changes may be lost.&lt;/font&gt;&lt;/div&gt;" style="rounded=0;whiteSpace=wrap;html=1;strokeColor=#999999;" vertex="1" parent="kttav1l3g9CmBdrCRdfj-2">
          <mxGeometry x="8.7" y="42.22222222222222" width="339.29999999999995" height="105.55555555555556" as="geometry" />
        </mxCell>
        <mxCell id="kttav1l3g9CmBdrCRdfj-5" value="Logout" style="rounded=1;html=1;shadow=0;dashed=0;whiteSpace=wrap;fontSize=11;fillColor=#E6E6E6;align=center;strokeColor=#B3B3B3;fontColor=#333333;" vertex="1" parent="kttav1l3g9CmBdrCRdfj-2">
          <mxGeometry x="41.324999999999996" y="158.33333333333334" width="67.425" height="17.817777777777778" as="geometry" />
        </mxCell>
        <mxCell id="kttav1l3g9CmBdrCRdfj-6" value="Reload Page" style="rounded=1;html=1;shadow=0;dashed=0;whiteSpace=wrap;fontSize=11;fillColor=#E6E6E6;align=center;strokeColor=#B3B3B3;fontColor=#333333;" vertex="1" parent="kttav1l3g9CmBdrCRdfj-2">
          <mxGeometry x="117.44999999999999" y="158.33333333333334" width="67.425" height="17.817777777777778" as="geometry" />
        </mxCell>
        <mxCell id="kttav1l3g9CmBdrCRdfj-7" value="Verify user &amp;amp; continue" style="rounded=1;html=1;shadow=0;dashed=0;whiteSpace=wrap;fontSize=11;fillColor=#E6E6E6;align=center;strokeColor=#B3B3B3;fontColor=#333333;" vertex="1" parent="kttav1l3g9CmBdrCRdfj-2">
          <mxGeometry x="193.575" y="151.41333333333336" width="67.425" height="31.666666666666668" as="geometry" />
        </mxCell>
        <mxCell id="kttav1l3g9CmBdrCRdfj-8" value="Logout" style="rounded=1;html=1;shadow=0;dashed=0;whiteSpace=wrap;fontSize=11;fillColor=#E6E6E6;align=center;strokeColor=#B3B3B3;fontColor=#333333;" vertex="1" parent="kttav1l3g9CmBdrCRdfj-2">
          <mxGeometry x="269.7" y="158.33333333333334" width="67.425" height="17.817777777777778" as="geometry" />
        </mxCell>
        <mxCell id="kttav1l3g9CmBdrCRdfj-9" value="" style="shape=flexArrow;endArrow=classic;html=1;rounded=0;entryX=0.5;entryY=1;entryDx=0;entryDy=0;" edge="1" parent="kttav1l3g9CmBdrCRdfj-1" target="kttav1l3g9CmBdrCRdfj-35">
          <mxGeometry width="50" height="50" relative="1" as="geometry">
            <mxPoint x="110" y="230" as="sourcePoint" />
            <mxPoint x="450" y="300" as="targetPoint" />
            <Array as="points">
              <mxPoint x="110" y="230" />
              <mxPoint x="430" y="230" />
            </Array>
          </mxGeometry>
        </mxCell>
        <mxCell id="kttav1l3g9CmBdrCRdfj-10" style="edgeStyle=orthogonalEdgeStyle;rounded=0;orthogonalLoop=1;jettySize=auto;html=1;entryX=0.25;entryY=0;entryDx=0;entryDy=0;" edge="1" parent="kttav1l3g9CmBdrCRdfj-1" source="kttav1l3g9CmBdrCRdfj-11" target="kttav1l3g9CmBdrCRdfj-15">
          <mxGeometry relative="1" as="geometry">
            <Array as="points">
              <mxPoint x="158" y="360" />
            </Array>
          </mxGeometry>
        </mxCell>
        <mxCell id="kttav1l3g9CmBdrCRdfj-11" value="Tab 1" style="rounded=1;whiteSpace=wrap;html=1;fontSize=12;glass=0;strokeWidth=1;shadow=0;" vertex="1" parent="kttav1l3g9CmBdrCRdfj-1">
          <mxGeometry x="123" y="300" width="120" height="40" as="geometry" />
        </mxCell>
        <mxCell id="kttav1l3g9CmBdrCRdfj-12" value="Tab 2" style="rounded=1;whiteSpace=wrap;html=1;fontSize=12;glass=0;strokeWidth=1;shadow=0;" vertex="1" parent="kttav1l3g9CmBdrCRdfj-1">
          <mxGeometry x="273" y="300" width="120" height="40" as="geometry" />
        </mxCell>
        <mxCell id="kttav1l3g9CmBdrCRdfj-13" value="Tab 3" style="rounded=1;whiteSpace=wrap;html=1;fontSize=12;glass=0;strokeWidth=1;shadow=0;" vertex="1" parent="kttav1l3g9CmBdrCRdfj-1">
          <mxGeometry x="423" y="300" width="120" height="40" as="geometry" />
        </mxCell>
        <mxCell id="kttav1l3g9CmBdrCRdfj-14" value="Any External Tab" style="rounded=1;whiteSpace=wrap;html=1;fontSize=12;glass=0;strokeWidth=1;shadow=0;" vertex="1" parent="kttav1l3g9CmBdrCRdfj-1">
          <mxGeometry x="573" y="300" width="120" height="40" as="geometry" />
        </mxCell>
        <mxCell id="kttav1l3g9CmBdrCRdfj-15" value="Make form Dirty" style="html=1;whiteSpace=wrap;container=1;recursiveResize=0;collapsible=0;" vertex="1" parent="kttav1l3g9CmBdrCRdfj-1">
          <mxGeometry x="130" y="380" width="110" height="40" as="geometry" />
        </mxCell>
        <mxCell id="kttav1l3g9CmBdrCRdfj-16" value="" style="triangle;html=1;whiteSpace=wrap;" vertex="1" parent="kttav1l3g9CmBdrCRdfj-15">
          <mxGeometry y="10" width="10" height="20" as="geometry" />
        </mxCell>
        <mxCell id="kttav1l3g9CmBdrCRdfj-17" value="Make form Dirty" style="html=1;whiteSpace=wrap;container=1;recursiveResize=0;collapsible=0;" vertex="1" parent="kttav1l3g9CmBdrCRdfj-1">
          <mxGeometry x="430" y="380" width="110" height="40" as="geometry" />
        </mxCell>
        <mxCell id="kttav1l3g9CmBdrCRdfj-18" value="" style="triangle;html=1;whiteSpace=wrap;" vertex="1" parent="kttav1l3g9CmBdrCRdfj-17">
          <mxGeometry y="10" width="10" height="20" as="geometry" />
        </mxCell>
        <mxCell id="kttav1l3g9CmBdrCRdfj-19" style="edgeStyle=orthogonalEdgeStyle;rounded=0;orthogonalLoop=1;jettySize=auto;html=1;entryX=0.636;entryY=0.025;entryDx=0;entryDy=0;entryPerimeter=0;" edge="1" parent="kttav1l3g9CmBdrCRdfj-1" source="kttav1l3g9CmBdrCRdfj-13" target="kttav1l3g9CmBdrCRdfj-17">
          <mxGeometry relative="1" as="geometry">
            <Array as="points">
              <mxPoint x="500" y="350" />
              <mxPoint x="500" y="350" />
            </Array>
          </mxGeometry>
        </mxCell>
        <mxCell id="kttav1l3g9CmBdrCRdfj-20" value="&lt;b&gt;&lt;font style=&quot;font-size: 14px;&quot;&gt;Logout action perfomed from any application.&lt;/font&gt;&lt;/b&gt;" style="shape=partialRectangle;whiteSpace=wrap;html=1;left=0;right=0;fillColor=#dae8fc;strokeColor=#6c8ebf;fontColor=#FF9999;" vertex="1" parent="kttav1l3g9CmBdrCRdfj-1">
          <mxGeometry x="80" y="450" width="721" height="20" as="geometry" />
        </mxCell>
        <mxCell id="kttav1l3g9CmBdrCRdfj-21" value="" style="endArrow=none;html=1;rounded=0;" edge="1" parent="kttav1l3g9CmBdrCRdfj-1">
          <mxGeometry width="50" height="50" relative="1" as="geometry">
            <mxPoint x="10" y="240" as="sourcePoint" />
            <mxPoint x="840" y="240" as="targetPoint" />
          </mxGeometry>
        </mxCell>
        <mxCell id="kttav1l3g9CmBdrCRdfj-22" value="" style="html=1;shadow=0;dashed=0;shape=mxgraph.bootstrap.popover;fillColor=#ffffff;strokeColor=#CCCCCC;dx=35;dy=5;rSize=5;direction=south;whiteSpace=wrap;verticalAlign=bottom;spacing=5;fontSize=10;spacingLeft=5;align=left;" vertex="1" parent="kttav1l3g9CmBdrCRdfj-1">
          <mxGeometry x="70" y="490" width="140" height="110" as="geometry" />
        </mxCell>
        <mxCell id="kttav1l3g9CmBdrCRdfj-23" value="Signed-out popup " style="html=1;shadow=0;dashed=0;shape=mxgraph.bootstrap.topButton;rSize=5;fillColor=#F7F7F7;strokeColor=#CCCCCC;perimeter=none;whiteSpace=wrap;resizeWidth=1;align=left;spacing=5;" vertex="1" parent="kttav1l3g9CmBdrCRdfj-22">
          <mxGeometry x="1" width="131.18110236220474" height="60" relative="1" as="geometry">
            <mxPoint x="-133" y="5" as="offset" />
          </mxGeometry>
        </mxCell>
        <mxCell id="kttav1l3g9CmBdrCRdfj-24" value="Verify user &amp;amp; continue" style="rounded=1;html=1;shadow=0;dashed=0;whiteSpace=wrap;fontSize=11;fillColor=#E6E6E6;align=center;strokeColor=#B3B3B3;fontColor=#333333;" vertex="1" parent="kttav1l3g9CmBdrCRdfj-22">
          <mxGeometry x="7.275590551181102" y="80" width="125.44881889763779" height="17.89" as="geometry" />
        </mxCell>
        <mxCell id="kttav1l3g9CmBdrCRdfj-25" style="edgeStyle=orthogonalEdgeStyle;rounded=0;orthogonalLoop=1;jettySize=auto;html=1;entryX=0.175;entryY=-0.033;entryDx=0;entryDy=0;entryPerimeter=0;" edge="1" parent="kttav1l3g9CmBdrCRdfj-1" source="kttav1l3g9CmBdrCRdfj-15" target="kttav1l3g9CmBdrCRdfj-23">
          <mxGeometry relative="1" as="geometry">
            <Array as="points">
              <mxPoint x="185" y="440" />
              <mxPoint x="100" y="440" />
            </Array>
          </mxGeometry>
        </mxCell>
        <mxCell id="kttav1l3g9CmBdrCRdfj-27" value="Signed-out popup " style="html=1;shadow=0;dashed=0;shape=mxgraph.bootstrap.topButton;rSize=5;fillColor=#F7F7F7;strokeColor=#CCCCCC;perimeter=none;whiteSpace=wrap;resizeWidth=1;align=left;spacing=5;" vertex="1" parent="kttav1l3g9CmBdrCRdfj-1">
          <mxGeometry x="620" y="490" width="131.18110236220474" height="60" as="geometry" />
        </mxCell>
        <mxCell id="kttav1l3g9CmBdrCRdfj-28" style="edgeStyle=orthogonalEdgeStyle;rounded=0;orthogonalLoop=1;jettySize=auto;html=1;entryX=0.358;entryY=0;entryDx=0;entryDy=0;entryPerimeter=0;" edge="1" parent="kttav1l3g9CmBdrCRdfj-1" source="kttav1l3g9CmBdrCRdfj-17" target="kttav1l3g9CmBdrCRdfj-27">
          <mxGeometry relative="1" as="geometry">
            <mxPoint x="671" y="491" as="targetPoint" />
          </mxGeometry>
        </mxCell>
        <mxCell id="kttav1l3g9CmBdrCRdfj-29" style="edgeStyle=orthogonalEdgeStyle;rounded=0;orthogonalLoop=1;jettySize=auto;html=1;" edge="1" parent="kttav1l3g9CmBdrCRdfj-1" source="kttav1l3g9CmBdrCRdfj-24" target="0T_na4PwwN-pWBWsbqIS-0">
          <mxGeometry relative="1" as="geometry">
            <mxPoint x="410" y="630" as="targetPoint" />
          </mxGeometry>
        </mxCell>
        <mxCell id="kttav1l3g9CmBdrCRdfj-30" value="" style="html=1;shadow=0;dashed=0;shape=mxgraph.bootstrap.popover;fillColor=#ffffff;strokeColor=#CCCCCC;dx=35;dy=5;rSize=5;direction=south;whiteSpace=wrap;verticalAlign=bottom;spacing=5;fontSize=10;spacingLeft=5;align=left;" vertex="1" parent="kttav1l3g9CmBdrCRdfj-1">
          <mxGeometry x="210" y="30" width="348" height="190" as="geometry" />
        </mxCell>
        <mxCell id="kttav1l3g9CmBdrCRdfj-31" value="Signed-out popup " style="html=1;shadow=0;dashed=0;shape=mxgraph.bootstrap.topButton;rSize=5;fillColor=#F7F7F7;strokeColor=#CCCCCC;perimeter=none;whiteSpace=wrap;resizeWidth=1;align=left;spacing=5;" vertex="1" parent="kttav1l3g9CmBdrCRdfj-30">
          <mxGeometry x="1" width="337.17937499999994" height="25" relative="1" as="geometry">
            <mxPoint x="-339" y="10" as="offset" />
          </mxGeometry>
        </mxCell>
        <mxCell id="kttav1l3g9CmBdrCRdfj-32" value="&lt;font style=&quot;border-color: var(--border-color); font-size: 10px; text-align: left;&quot;&gt;&lt;b style=&quot;border-color: var(--border-color);&quot;&gt;Title&lt;/b&gt;: Signed out&lt;br style=&quot;border-color: var(--border-color);&quot;&gt;&lt;br style=&quot;border-color: var(--border-color);&quot;&gt;&lt;/font&gt;&lt;div style=&quot;border-color: var(--border-color); font-size: 10px; text-align: left;&quot;&gt;&lt;font style=&quot;border-color: var(--border-color); font-size: 11px;&quot;&gt;&lt;b style=&quot;border-color: var(--border-color);&quot;&gt;Message&lt;/b&gt;: You have been signed out. You must sign in again to save changes to this page.&lt;/font&gt;&lt;/div&gt;&lt;div style=&quot;border-color: var(--border-color); font-size: 10px; text-align: left;&quot;&gt;&lt;font style=&quot;border-color: var(--border-color); font-size: 11px;&quot;&gt;&amp;nbsp; &amp;nbsp; &amp;nbsp; &amp;nbsp; &amp;nbsp; &amp;nbsp; &amp;nbsp; &amp;nbsp; &amp;nbsp; &amp;nbsp; &amp;nbsp; &amp;nbsp; &amp;nbsp; &amp;nbsp; &amp;nbsp; &amp;nbsp; &amp;nbsp; &amp;nbsp; &amp;nbsp; &amp;nbsp;&amp;nbsp;&lt;/font&gt;&lt;/div&gt;&lt;div style=&quot;border-color: var(--border-color); font-size: 10px; text-align: left;&quot;&gt;&lt;font style=&quot;border-color: var(--border-color); font-size: 11px;&quot;&gt;If you leave or reload the page, your unsaved changes may be lost.&lt;/font&gt;&lt;/div&gt;" style="rounded=0;whiteSpace=wrap;html=1;strokeColor=#999999;" vertex="1" parent="kttav1l3g9CmBdrCRdfj-30">
          <mxGeometry x="8.7" y="42.22222222222222" width="339.29999999999995" height="105.55555555555556" as="geometry" />
        </mxCell>
        <mxCell id="kttav1l3g9CmBdrCRdfj-33" value="Logout" style="rounded=1;html=1;shadow=0;dashed=0;whiteSpace=wrap;fontSize=11;fillColor=#E6E6E6;align=center;strokeColor=#B3B3B3;fontColor=#333333;" vertex="1" parent="kttav1l3g9CmBdrCRdfj-30">
          <mxGeometry x="41.324999999999996" y="158.33333333333334" width="67.425" height="17.817777777777778" as="geometry" />
        </mxCell>
        <mxCell id="kttav1l3g9CmBdrCRdfj-34" value="Reload Page" style="rounded=1;html=1;shadow=0;dashed=0;whiteSpace=wrap;fontSize=11;fillColor=#E6E6E6;align=center;strokeColor=#B3B3B3;fontColor=#333333;" vertex="1" parent="kttav1l3g9CmBdrCRdfj-30">
          <mxGeometry x="117.44999999999999" y="158.33333333333334" width="67.425" height="17.817777777777778" as="geometry" />
        </mxCell>
        <mxCell id="kttav1l3g9CmBdrCRdfj-35" value="Verify user &amp;amp; continue" style="rounded=1;html=1;shadow=0;dashed=0;whiteSpace=wrap;fontSize=11;fillColor=#E6E6E6;align=center;strokeColor=#B3B3B3;fontColor=#333333;" vertex="1" parent="kttav1l3g9CmBdrCRdfj-30">
          <mxGeometry x="193.575" y="151.41333333333336" width="67.425" height="31.666666666666668" as="geometry" />
        </mxCell>
        <mxCell id="kttav1l3g9CmBdrCRdfj-36" value="Force Logout from all open tab" style="rounded=1;html=1;shadow=0;dashed=0;whiteSpace=wrap;fontSize=11;fillColor=#E6E6E6;align=center;strokeColor=#B3B3B3;fontColor=#333333;" vertex="1" parent="kttav1l3g9CmBdrCRdfj-30">
          <mxGeometry x="270" y="147.78" width="67.43" height="42.22" as="geometry" />
        </mxCell>
        <mxCell id="0T_na4PwwN-pWBWsbqIS-3" style="edgeStyle=orthogonalEdgeStyle;rounded=0;orthogonalLoop=1;jettySize=auto;html=1;entryX=-0.008;entryY=0.194;entryDx=0;entryDy=0;entryPerimeter=0;" edge="1" parent="kttav1l3g9CmBdrCRdfj-1" source="0T_na4PwwN-pWBWsbqIS-0" target="W71t57S8zENmpD4-U0nL-14">
          <mxGeometry relative="1" as="geometry">
            <Array as="points">
              <mxPoint x="340" y="665" />
              <mxPoint x="340" y="630" />
              <mxPoint x="236" y="630" />
            </Array>
          </mxGeometry>
        </mxCell>
        <mxCell id="0T_na4PwwN-pWBWsbqIS-4" value="Tab N:&lt;br style=&quot;border-color: var(--border-color); font-size: 12px; background-color: rgb(251, 251, 251);&quot;&gt;&lt;span style=&quot;font-size: 12px; background-color: rgb(251, 251, 251);&quot;&gt;Still Loggedout&lt;/span&gt;" style="edgeLabel;html=1;align=center;verticalAlign=middle;resizable=0;points=[];" vertex="1" connectable="0" parent="0T_na4PwwN-pWBWsbqIS-3">
          <mxGeometry x="0.15" y="1" relative="1" as="geometry">
            <mxPoint x="5" as="offset" />
          </mxGeometry>
        </mxCell>
        <mxCell id="W71t57S8zENmpD4-U0nL-23" style="edgeStyle=orthogonalEdgeStyle;rounded=0;orthogonalLoop=1;jettySize=auto;html=1;entryX=0.5;entryY=0;entryDx=0;entryDy=0;" edge="1" parent="kttav1l3g9CmBdrCRdfj-1" source="0T_na4PwwN-pWBWsbqIS-0" target="W71t57S8zENmpD4-U0nL-22">
          <mxGeometry relative="1" as="geometry" />
        </mxCell>
        <mxCell id="W71t57S8zENmpD4-U0nL-24" value="Tab N:&amp;nbsp;&lt;br&gt;User is logged-in with Same/Different User." style="edgeLabel;html=1;align=center;verticalAlign=middle;resizable=0;points=[];" vertex="1" connectable="0" parent="W71t57S8zENmpD4-U0nL-23">
          <mxGeometry x="0.1909" y="-1" relative="1" as="geometry">
            <mxPoint x="1" y="27" as="offset" />
          </mxGeometry>
        </mxCell>
        <mxCell id="0T_na4PwwN-pWBWsbqIS-0" value="User login &lt;br&gt;cases on &lt;br&gt;another tab" style="rhombus;whiteSpace=wrap;html=1;" vertex="1" parent="kttav1l3g9CmBdrCRdfj-1">
          <mxGeometry x="350" y="620" width="130" height="90" as="geometry" />
        </mxCell>
        <mxCell id="W71t57S8zENmpD4-U0nL-14" value="" style="html=1;shadow=0;dashed=0;shape=mxgraph.bootstrap.popover;fillColor=#ffffff;strokeColor=#CCCCCC;dx=35;dy=5;rSize=5;direction=south;whiteSpace=wrap;verticalAlign=bottom;spacing=5;fontSize=10;spacingLeft=5;align=left;" vertex="1" parent="kttav1l3g9CmBdrCRdfj-1">
          <mxGeometry x="20" y="650" width="268" height="120" as="geometry" />
        </mxCell>
        <mxCell id="W71t57S8zENmpD4-U0nL-15" value="Information" style="html=1;shadow=0;dashed=0;shape=mxgraph.bootstrap.topButton;rSize=5;fillColor=#F7F7F7;strokeColor=#CCCCCC;perimeter=none;whiteSpace=wrap;resizeWidth=1;align=left;spacing=5;" vertex="1" parent="W71t57S8zENmpD4-U0nL-14">
          <mxGeometry x="1" width="259.66687499999995" height="25" relative="1" as="geometry">
            <mxPoint x="-264" y="10" as="offset" />
          </mxGeometry>
        </mxCell>
        <mxCell id="W71t57S8zENmpD4-U0nL-16" value="&lt;div style=&quot;text-align: left;&quot;&gt;&lt;span style=&quot;background-color: initial; font-size: 11px;&quot;&gt;Not found any logged-in&amp;nbsp; User.&lt;/span&gt;&lt;/div&gt;" style="rounded=0;whiteSpace=wrap;html=1;strokeColor=#999999;" vertex="1" parent="W71t57S8zENmpD4-U0nL-14">
          <mxGeometry x="6.699999999999999" y="44.912727272727274" width="261.3" height="42.35999999999999" as="geometry" />
        </mxCell>
        <mxCell id="W71t57S8zENmpD4-U0nL-17" value="Ok" style="rounded=1;html=1;shadow=0;dashed=0;whiteSpace=wrap;fontSize=11;fillColor=#E6E6E6;align=center;strokeColor=#B3B3B3;fontColor=#333333;" vertex="1" parent="W71t57S8zENmpD4-U0nL-14">
          <mxGeometry x="198.68965517241378" y="96.02181818181818" width="51.92114942528735" height="23.978181818181817" as="geometry" />
        </mxCell>
        <mxCell id="W71t57S8zENmpD4-U0nL-26" style="edgeStyle=orthogonalEdgeStyle;rounded=0;orthogonalLoop=1;jettySize=auto;html=1;entryX=0.5;entryY=0;entryDx=0;entryDy=0;" edge="1" parent="kttav1l3g9CmBdrCRdfj-1" source="W71t57S8zENmpD4-U0nL-22" target="W71t57S8zENmpD4-U0nL-25">
          <mxGeometry relative="1" as="geometry" />
        </mxCell>
        <mxCell id="W71t57S8zENmpD4-U0nL-22" value="User&lt;br&gt;has page/feature rights?" style="rhombus;whiteSpace=wrap;html=1;" vertex="1" parent="kttav1l3g9CmBdrCRdfj-1">
          <mxGeometry x="520" y="750" width="130" height="90" as="geometry" />
        </mxCell>
        <mxCell id="W71t57S8zENmpD4-U0nL-25" value="- Close &quot;Signed-out&quot; popup &lt;br&gt;&lt;div style=&quot;&quot;&gt;&lt;span style=&quot;background-color: initial;&quot;&gt;- User can continue to fill form.&lt;/span&gt;&lt;/div&gt;" style="rounded=1;whiteSpace=wrap;html=1;fontSize=12;glass=0;strokeWidth=1;shadow=0;align=left;" vertex="1" parent="kttav1l3g9CmBdrCRdfj-1">
          <mxGeometry x="243" y="890" width="189.5" height="40" as="geometry" />
        </mxCell>
        <mxCell id="W71t57S8zENmpD4-U0nL-27" value="" style="html=1;shadow=0;dashed=0;shape=mxgraph.bootstrap.popover;fillColor=#ffffff;strokeColor=#CCCCCC;dx=35;dy=5;rSize=5;direction=south;whiteSpace=wrap;verticalAlign=bottom;spacing=5;fontSize=10;spacingLeft=5;align=left;" vertex="1" parent="kttav1l3g9CmBdrCRdfj-1">
          <mxGeometry x="543" y="910" width="268" height="120" as="geometry" />
        </mxCell>
        <mxCell id="W71t57S8zENmpD4-U0nL-28" value="Alert" style="html=1;shadow=0;dashed=0;shape=mxgraph.bootstrap.topButton;rSize=5;fillColor=#F7F7F7;strokeColor=#CCCCCC;perimeter=none;whiteSpace=wrap;resizeWidth=1;align=left;spacing=5;" vertex="1" parent="W71t57S8zENmpD4-U0nL-27">
          <mxGeometry x="1" width="259.66687499999995" height="25" relative="1" as="geometry">
            <mxPoint x="-264" y="10" as="offset" />
          </mxGeometry>
        </mxCell>
        <mxCell id="W71t57S8zENmpD4-U0nL-29" value="&lt;div style=&quot;text-align: left;&quot;&gt;User does not has Page/Feature rights.&lt;br&gt;&lt;/div&gt;" style="rounded=0;whiteSpace=wrap;html=1;strokeColor=#999999;" vertex="1" parent="W71t57S8zENmpD4-U0nL-27">
          <mxGeometry x="6.699999999999999" y="44.912727272727274" width="261.3" height="42.35999999999999" as="geometry" />
        </mxCell>
        <mxCell id="W71t57S8zENmpD4-U0nL-30" value="Ok" style="rounded=1;html=1;shadow=0;dashed=0;whiteSpace=wrap;fontSize=11;fillColor=#E6E6E6;align=center;strokeColor=#B3B3B3;fontColor=#333333;" vertex="1" parent="W71t57S8zENmpD4-U0nL-27">
          <mxGeometry x="198.68965517241378" y="96.02181818181818" width="51.92114942528735" height="23.978181818181817" as="geometry" />
        </mxCell>
        <mxCell id="W71t57S8zENmpD4-U0nL-31" style="edgeStyle=orthogonalEdgeStyle;rounded=0;orthogonalLoop=1;jettySize=auto;html=1;entryX=0.008;entryY=0.153;entryDx=0;entryDy=0;entryPerimeter=0;exitX=1;exitY=0.5;exitDx=0;exitDy=0;" edge="1" parent="kttav1l3g9CmBdrCRdfj-1" source="W71t57S8zENmpD4-U0nL-22" target="W71t57S8zENmpD4-U0nL-27">
          <mxGeometry relative="1" as="geometry">
            <Array as="points">
              <mxPoint x="770" y="795" />
            </Array>
          </mxGeometry>
        </mxCell>
      </root>
    </mxGraphModel>
  </diagram>
  <diagram name="Force logout: Signed-out popup button" id="R-XJZU447sL5r26NUZUK">
    <mxGraphModel dx="1434" dy="836" grid="1" gridSize="10" guides="1" tooltips="1" connect="1" arrows="1" fold="1" page="1" pageScale="1" pageWidth="850" pageHeight="1100" math="0" shadow="0">
      <root>
        <mxCell id="Q9SPtCItzHb9gkMCu9A7-0" />
        <mxCell id="Q9SPtCItzHb9gkMCu9A7-1" parent="Q9SPtCItzHb9gkMCu9A7-0" />
        <mxCell id="Q9SPtCItzHb9gkMCu9A7-2" value="" style="html=1;shadow=0;dashed=0;shape=mxgraph.bootstrap.popover;fillColor=#ffffff;strokeColor=#CCCCCC;dx=35;dy=5;rSize=5;direction=south;whiteSpace=wrap;verticalAlign=bottom;spacing=5;fontSize=10;spacingLeft=5;align=left;" vertex="1" parent="Q9SPtCItzHb9gkMCu9A7-1">
          <mxGeometry x="210" y="30" width="348" height="190" as="geometry" />
        </mxCell>
        <mxCell id="Q9SPtCItzHb9gkMCu9A7-3" value="Signed-out popup " style="html=1;shadow=0;dashed=0;shape=mxgraph.bootstrap.topButton;rSize=5;fillColor=#F7F7F7;strokeColor=#CCCCCC;perimeter=none;whiteSpace=wrap;resizeWidth=1;align=left;spacing=5;" vertex="1" parent="Q9SPtCItzHb9gkMCu9A7-2">
          <mxGeometry x="1" width="337.17937499999994" height="25" relative="1" as="geometry">
            <mxPoint x="-339" y="10" as="offset" />
          </mxGeometry>
        </mxCell>
        <mxCell id="Q9SPtCItzHb9gkMCu9A7-4" value="&lt;font style=&quot;border-color: var(--border-color); font-size: 10px; text-align: left;&quot;&gt;&lt;b style=&quot;border-color: var(--border-color);&quot;&gt;Title&lt;/b&gt;: Signed out&lt;br style=&quot;border-color: var(--border-color);&quot;&gt;&lt;br style=&quot;border-color: var(--border-color);&quot;&gt;&lt;/font&gt;&lt;div style=&quot;border-color: var(--border-color); font-size: 10px; text-align: left;&quot;&gt;&lt;font style=&quot;border-color: var(--border-color); font-size: 11px;&quot;&gt;&lt;b style=&quot;border-color: var(--border-color);&quot;&gt;Message&lt;/b&gt;: You have been signed out. You must sign in again to save changes to this page.&lt;/font&gt;&lt;/div&gt;&lt;div style=&quot;border-color: var(--border-color); font-size: 10px; text-align: left;&quot;&gt;&lt;font style=&quot;border-color: var(--border-color); font-size: 11px;&quot;&gt;&amp;nbsp; &amp;nbsp; &amp;nbsp; &amp;nbsp; &amp;nbsp; &amp;nbsp; &amp;nbsp; &amp;nbsp; &amp;nbsp; &amp;nbsp; &amp;nbsp; &amp;nbsp; &amp;nbsp; &amp;nbsp; &amp;nbsp; &amp;nbsp; &amp;nbsp; &amp;nbsp; &amp;nbsp; &amp;nbsp;&amp;nbsp;&lt;/font&gt;&lt;/div&gt;&lt;div style=&quot;border-color: var(--border-color); font-size: 10px; text-align: left;&quot;&gt;&lt;font style=&quot;border-color: var(--border-color); font-size: 11px;&quot;&gt;If you leave or reload the page, your unsaved changes may be lost.&lt;/font&gt;&lt;/div&gt;" style="rounded=0;whiteSpace=wrap;html=1;strokeColor=#999999;" vertex="1" parent="Q9SPtCItzHb9gkMCu9A7-2">
          <mxGeometry x="8.7" y="42.22222222222222" width="339.29999999999995" height="105.55555555555556" as="geometry" />
        </mxCell>
        <mxCell id="Q9SPtCItzHb9gkMCu9A7-5" value="Logout" style="rounded=1;html=1;shadow=0;dashed=0;whiteSpace=wrap;fontSize=11;fillColor=#E6E6E6;align=center;strokeColor=#B3B3B3;fontColor=#333333;" vertex="1" parent="Q9SPtCItzHb9gkMCu9A7-2">
          <mxGeometry x="41.324999999999996" y="158.33333333333334" width="67.425" height="17.817777777777778" as="geometry" />
        </mxCell>
        <mxCell id="Q9SPtCItzHb9gkMCu9A7-6" value="Reload Page" style="rounded=1;html=1;shadow=0;dashed=0;whiteSpace=wrap;fontSize=11;fillColor=#E6E6E6;align=center;strokeColor=#B3B3B3;fontColor=#333333;" vertex="1" parent="Q9SPtCItzHb9gkMCu9A7-2">
          <mxGeometry x="117.44999999999999" y="158.33333333333334" width="67.425" height="17.817777777777778" as="geometry" />
        </mxCell>
        <mxCell id="Q9SPtCItzHb9gkMCu9A7-7" value="Verify user &amp;amp; continue" style="rounded=1;html=1;shadow=0;dashed=0;whiteSpace=wrap;fontSize=11;fillColor=#E6E6E6;align=center;strokeColor=#B3B3B3;fontColor=#333333;" vertex="1" parent="Q9SPtCItzHb9gkMCu9A7-2">
          <mxGeometry x="193.575" y="151.41333333333336" width="67.425" height="31.666666666666668" as="geometry" />
        </mxCell>
        <mxCell id="Q9SPtCItzHb9gkMCu9A7-8" value="Logout" style="rounded=1;html=1;shadow=0;dashed=0;whiteSpace=wrap;fontSize=11;fillColor=#E6E6E6;align=center;strokeColor=#B3B3B3;fontColor=#333333;" vertex="1" parent="Q9SPtCItzHb9gkMCu9A7-2">
          <mxGeometry x="269.7" y="158.33333333333334" width="67.425" height="17.817777777777778" as="geometry" />
        </mxCell>
        <mxCell id="Q9SPtCItzHb9gkMCu9A7-10" style="edgeStyle=orthogonalEdgeStyle;rounded=0;orthogonalLoop=1;jettySize=auto;html=1;entryX=0.25;entryY=0;entryDx=0;entryDy=0;" edge="1" parent="Q9SPtCItzHb9gkMCu9A7-1" source="Q9SPtCItzHb9gkMCu9A7-11" target="Q9SPtCItzHb9gkMCu9A7-15">
          <mxGeometry relative="1" as="geometry">
            <Array as="points">
              <mxPoint x="158" y="360" />
            </Array>
          </mxGeometry>
        </mxCell>
        <mxCell id="Q9SPtCItzHb9gkMCu9A7-11" value="Tab 1" style="rounded=1;whiteSpace=wrap;html=1;fontSize=12;glass=0;strokeWidth=1;shadow=0;" vertex="1" parent="Q9SPtCItzHb9gkMCu9A7-1">
          <mxGeometry x="123" y="300" width="120" height="40" as="geometry" />
        </mxCell>
        <mxCell id="Q9SPtCItzHb9gkMCu9A7-12" value="Tab 2" style="rounded=1;whiteSpace=wrap;html=1;fontSize=12;glass=0;strokeWidth=1;shadow=0;" vertex="1" parent="Q9SPtCItzHb9gkMCu9A7-1">
          <mxGeometry x="273" y="300" width="120" height="40" as="geometry" />
        </mxCell>
        <mxCell id="Q9SPtCItzHb9gkMCu9A7-13" value="Tab 3" style="rounded=1;whiteSpace=wrap;html=1;fontSize=12;glass=0;strokeWidth=1;shadow=0;" vertex="1" parent="Q9SPtCItzHb9gkMCu9A7-1">
          <mxGeometry x="423" y="300" width="120" height="40" as="geometry" />
        </mxCell>
        <mxCell id="Q9SPtCItzHb9gkMCu9A7-14" value="Any External Tab" style="rounded=1;whiteSpace=wrap;html=1;fontSize=12;glass=0;strokeWidth=1;shadow=0;" vertex="1" parent="Q9SPtCItzHb9gkMCu9A7-1">
          <mxGeometry x="573" y="300" width="120" height="40" as="geometry" />
        </mxCell>
        <mxCell id="Q9SPtCItzHb9gkMCu9A7-15" value="Make form Dirty" style="html=1;whiteSpace=wrap;container=1;recursiveResize=0;collapsible=0;" vertex="1" parent="Q9SPtCItzHb9gkMCu9A7-1">
          <mxGeometry x="130" y="380" width="110" height="40" as="geometry" />
        </mxCell>
        <mxCell id="Q9SPtCItzHb9gkMCu9A7-16" value="" style="triangle;html=1;whiteSpace=wrap;" vertex="1" parent="Q9SPtCItzHb9gkMCu9A7-15">
          <mxGeometry y="10" width="10" height="20" as="geometry" />
        </mxCell>
        <mxCell id="Q9SPtCItzHb9gkMCu9A7-17" value="Make form Dirty" style="html=1;whiteSpace=wrap;container=1;recursiveResize=0;collapsible=0;" vertex="1" parent="Q9SPtCItzHb9gkMCu9A7-1">
          <mxGeometry x="430" y="380" width="110" height="40" as="geometry" />
        </mxCell>
        <mxCell id="Q9SPtCItzHb9gkMCu9A7-18" value="" style="triangle;html=1;whiteSpace=wrap;" vertex="1" parent="Q9SPtCItzHb9gkMCu9A7-17">
          <mxGeometry y="10" width="10" height="20" as="geometry" />
        </mxCell>
        <mxCell id="Q9SPtCItzHb9gkMCu9A7-19" style="edgeStyle=orthogonalEdgeStyle;rounded=0;orthogonalLoop=1;jettySize=auto;html=1;entryX=0.636;entryY=0.025;entryDx=0;entryDy=0;entryPerimeter=0;" edge="1" parent="Q9SPtCItzHb9gkMCu9A7-1" source="Q9SPtCItzHb9gkMCu9A7-13" target="Q9SPtCItzHb9gkMCu9A7-17">
          <mxGeometry relative="1" as="geometry">
            <Array as="points">
              <mxPoint x="500" y="350" />
              <mxPoint x="500" y="350" />
            </Array>
          </mxGeometry>
        </mxCell>
        <mxCell id="Q9SPtCItzHb9gkMCu9A7-20" value="&lt;b&gt;&lt;font style=&quot;font-size: 14px;&quot;&gt;Logout action perfomed from any application.&lt;/font&gt;&lt;/b&gt;" style="shape=partialRectangle;whiteSpace=wrap;html=1;left=0;right=0;fillColor=#dae8fc;strokeColor=#6c8ebf;fontColor=#FF9999;" vertex="1" parent="Q9SPtCItzHb9gkMCu9A7-1">
          <mxGeometry x="80" y="450" width="721" height="20" as="geometry" />
        </mxCell>
        <mxCell id="Q9SPtCItzHb9gkMCu9A7-21" value="" style="endArrow=none;html=1;rounded=0;" edge="1" parent="Q9SPtCItzHb9gkMCu9A7-1">
          <mxGeometry width="50" height="50" relative="1" as="geometry">
            <mxPoint x="10" y="240" as="sourcePoint" />
            <mxPoint x="840" y="240" as="targetPoint" />
          </mxGeometry>
        </mxCell>
        <mxCell id="Q9SPtCItzHb9gkMCu9A7-22" value="" style="html=1;shadow=0;dashed=0;shape=mxgraph.bootstrap.popover;fillColor=#ffffff;strokeColor=#CCCCCC;dx=35;dy=5;rSize=5;direction=south;whiteSpace=wrap;verticalAlign=bottom;spacing=5;fontSize=10;spacingLeft=5;align=left;" vertex="1" parent="Q9SPtCItzHb9gkMCu9A7-1">
          <mxGeometry x="70" y="490" width="140" height="110" as="geometry" />
        </mxCell>
        <mxCell id="Q9SPtCItzHb9gkMCu9A7-23" value="Signed-out popup " style="html=1;shadow=0;dashed=0;shape=mxgraph.bootstrap.topButton;rSize=5;fillColor=#F7F7F7;strokeColor=#CCCCCC;perimeter=none;whiteSpace=wrap;resizeWidth=1;align=left;spacing=5;" vertex="1" parent="Q9SPtCItzHb9gkMCu9A7-22">
          <mxGeometry x="1" width="131.18110236220474" height="60" relative="1" as="geometry">
            <mxPoint x="-133" y="5" as="offset" />
          </mxGeometry>
        </mxCell>
        <mxCell id="Q9SPtCItzHb9gkMCu9A7-24" value="Force Logout from all open tab" style="rounded=1;html=1;shadow=0;dashed=0;whiteSpace=wrap;fontSize=11;fillColor=#E6E6E6;align=center;strokeColor=#B3B3B3;fontColor=#333333;" vertex="1" parent="Q9SPtCItzHb9gkMCu9A7-22">
          <mxGeometry x="7.28" y="70" width="125.45" height="27.89" as="geometry" />
        </mxCell>
        <mxCell id="Q9SPtCItzHb9gkMCu9A7-25" style="edgeStyle=orthogonalEdgeStyle;rounded=0;orthogonalLoop=1;jettySize=auto;html=1;entryX=0.175;entryY=-0.033;entryDx=0;entryDy=0;entryPerimeter=0;" edge="1" parent="Q9SPtCItzHb9gkMCu9A7-1" source="Q9SPtCItzHb9gkMCu9A7-15" target="Q9SPtCItzHb9gkMCu9A7-23">
          <mxGeometry relative="1" as="geometry">
            <Array as="points">
              <mxPoint x="185" y="440" />
              <mxPoint x="100" y="440" />
            </Array>
          </mxGeometry>
        </mxCell>
        <mxCell id="Q9SPtCItzHb9gkMCu9A7-26" value="Signed-out popup " style="html=1;shadow=0;dashed=0;shape=mxgraph.bootstrap.topButton;rSize=5;fillColor=#F7F7F7;strokeColor=#CCCCCC;perimeter=none;whiteSpace=wrap;resizeWidth=1;align=left;spacing=5;" vertex="1" parent="Q9SPtCItzHb9gkMCu9A7-1">
          <mxGeometry x="620" y="490" width="131.18110236220474" height="60" as="geometry" />
        </mxCell>
        <mxCell id="Q9SPtCItzHb9gkMCu9A7-27" style="edgeStyle=orthogonalEdgeStyle;rounded=0;orthogonalLoop=1;jettySize=auto;html=1;entryX=0.358;entryY=0;entryDx=0;entryDy=0;entryPerimeter=0;" edge="1" parent="Q9SPtCItzHb9gkMCu9A7-1" source="Q9SPtCItzHb9gkMCu9A7-17" target="Q9SPtCItzHb9gkMCu9A7-26">
          <mxGeometry relative="1" as="geometry">
            <mxPoint x="671" y="491" as="targetPoint" />
          </mxGeometry>
        </mxCell>
        <mxCell id="Q9SPtCItzHb9gkMCu9A7-28" style="edgeStyle=orthogonalEdgeStyle;rounded=0;orthogonalLoop=1;jettySize=auto;html=1;entryX=0.437;entryY=1.15;entryDx=0;entryDy=0;entryPerimeter=0;" edge="1" parent="Q9SPtCItzHb9gkMCu9A7-1">
          <mxGeometry relative="1" as="geometry">
            <mxPoint x="210.00000000000003" y="571" as="sourcePoint" />
            <mxPoint x="402.347" y="470" as="targetPoint" />
            <Array as="points">
              <mxPoint x="407.27" y="571" />
              <mxPoint x="407.27" y="517" />
              <mxPoint x="402.27" y="517" />
            </Array>
          </mxGeometry>
        </mxCell>
        <mxCell id="047QnjQ57UzNbkMq8N7_-0" value="&lt;p style=&quot;border-color: var(--border-color); line-height: 12.1px;&quot;&gt;1. Reset all tabs form - Data loss for all tab form.&lt;/p&gt;&lt;p style=&quot;border-color: var(--border-color); line-height: 12.1px;&quot;&gt;2. Check Logout impact in Previous tab named &quot;Logout&quot;&lt;/p&gt;" style="edgeLabel;html=1;align=center;verticalAlign=middle;resizable=0;points=[];" vertex="1" connectable="0" parent="Q9SPtCItzHb9gkMCu9A7-28">
          <mxGeometry x="-0.1787" y="1" relative="1" as="geometry">
            <mxPoint x="114" y="1" as="offset" />
          </mxGeometry>
        </mxCell>
        <mxCell id="Q9SPtCItzHb9gkMCu9A7-29" value="" style="html=1;shadow=0;dashed=0;shape=mxgraph.bootstrap.popover;fillColor=#ffffff;strokeColor=#CCCCCC;dx=35;dy=5;rSize=5;direction=south;whiteSpace=wrap;verticalAlign=bottom;spacing=5;fontSize=10;spacingLeft=5;align=left;" vertex="1" parent="Q9SPtCItzHb9gkMCu9A7-1">
          <mxGeometry x="210" y="30" width="348" height="190" as="geometry" />
        </mxCell>
        <mxCell id="Q9SPtCItzHb9gkMCu9A7-30" value="Signed-out popup " style="html=1;shadow=0;dashed=0;shape=mxgraph.bootstrap.topButton;rSize=5;fillColor=#F7F7F7;strokeColor=#CCCCCC;perimeter=none;whiteSpace=wrap;resizeWidth=1;align=left;spacing=5;" vertex="1" parent="Q9SPtCItzHb9gkMCu9A7-29">
          <mxGeometry x="1" width="337.17937499999994" height="25" relative="1" as="geometry">
            <mxPoint x="-339" y="10" as="offset" />
          </mxGeometry>
        </mxCell>
        <mxCell id="Q9SPtCItzHb9gkMCu9A7-31" value="&lt;font style=&quot;border-color: var(--border-color); font-size: 10px; text-align: left;&quot;&gt;&lt;b style=&quot;border-color: var(--border-color);&quot;&gt;Title&lt;/b&gt;: Signed out&lt;br style=&quot;border-color: var(--border-color);&quot;&gt;&lt;br style=&quot;border-color: var(--border-color);&quot;&gt;&lt;/font&gt;&lt;div style=&quot;border-color: var(--border-color); font-size: 10px; text-align: left;&quot;&gt;&lt;font style=&quot;border-color: var(--border-color); font-size: 11px;&quot;&gt;&lt;b style=&quot;border-color: var(--border-color);&quot;&gt;Message&lt;/b&gt;: You have been signed out. You must sign in again to save changes to this page.&lt;/font&gt;&lt;/div&gt;&lt;div style=&quot;border-color: var(--border-color); font-size: 10px; text-align: left;&quot;&gt;&lt;font style=&quot;border-color: var(--border-color); font-size: 11px;&quot;&gt;&amp;nbsp; &amp;nbsp; &amp;nbsp; &amp;nbsp; &amp;nbsp; &amp;nbsp; &amp;nbsp; &amp;nbsp; &amp;nbsp; &amp;nbsp; &amp;nbsp; &amp;nbsp; &amp;nbsp; &amp;nbsp; &amp;nbsp; &amp;nbsp; &amp;nbsp; &amp;nbsp; &amp;nbsp; &amp;nbsp;&amp;nbsp;&lt;/font&gt;&lt;/div&gt;&lt;div style=&quot;border-color: var(--border-color); font-size: 10px; text-align: left;&quot;&gt;&lt;font style=&quot;border-color: var(--border-color); font-size: 11px;&quot;&gt;If you leave or reload the page, your unsaved changes may be lost.&lt;/font&gt;&lt;/div&gt;" style="rounded=0;whiteSpace=wrap;html=1;strokeColor=#999999;" vertex="1" parent="Q9SPtCItzHb9gkMCu9A7-29">
          <mxGeometry x="8.7" y="42.22222222222222" width="339.29999999999995" height="105.55555555555556" as="geometry" />
        </mxCell>
        <mxCell id="Q9SPtCItzHb9gkMCu9A7-32" value="Logout" style="rounded=1;html=1;shadow=0;dashed=0;whiteSpace=wrap;fontSize=11;fillColor=#E6E6E6;align=center;strokeColor=#B3B3B3;fontColor=#333333;" vertex="1" parent="Q9SPtCItzHb9gkMCu9A7-29">
          <mxGeometry x="41.324999999999996" y="158.33333333333334" width="67.425" height="17.817777777777778" as="geometry" />
        </mxCell>
        <mxCell id="Q9SPtCItzHb9gkMCu9A7-33" value="Reload Page" style="rounded=1;html=1;shadow=0;dashed=0;whiteSpace=wrap;fontSize=11;fillColor=#E6E6E6;align=center;strokeColor=#B3B3B3;fontColor=#333333;" vertex="1" parent="Q9SPtCItzHb9gkMCu9A7-29">
          <mxGeometry x="117.44999999999999" y="158.33333333333334" width="67.425" height="17.817777777777778" as="geometry" />
        </mxCell>
        <mxCell id="Q9SPtCItzHb9gkMCu9A7-34" value="Verify user &amp;amp; continue" style="rounded=1;html=1;shadow=0;dashed=0;whiteSpace=wrap;fontSize=11;fillColor=#E6E6E6;align=center;strokeColor=#B3B3B3;fontColor=#333333;" vertex="1" parent="Q9SPtCItzHb9gkMCu9A7-29">
          <mxGeometry x="193.575" y="151.41333333333336" width="67.425" height="31.666666666666668" as="geometry" />
        </mxCell>
        <mxCell id="Q9SPtCItzHb9gkMCu9A7-35" value="Force Logout from all open tab" style="rounded=1;html=1;shadow=0;dashed=0;whiteSpace=wrap;fontSize=11;fillColor=#E6E6E6;align=center;strokeColor=#B3B3B3;fontColor=#333333;" vertex="1" parent="Q9SPtCItzHb9gkMCu9A7-29">
          <mxGeometry x="270" y="147.78" width="67.43" height="42.22" as="geometry" />
        </mxCell>
        <mxCell id="cimnjU35Z8yE6nD5442--2" value="" style="shape=flexArrow;endArrow=classic;html=1;rounded=0;" edge="1" parent="Q9SPtCItzHb9gkMCu9A7-1" target="Q9SPtCItzHb9gkMCu9A7-35">
          <mxGeometry width="50" height="50" relative="1" as="geometry">
            <mxPoint x="660.5899999999999" y="200" as="sourcePoint" />
            <mxPoint x="710.5899999999999" y="150" as="targetPoint" />
          </mxGeometry>
        </mxCell>
      </root>
    </mxGraphModel>
  </diagram>
</mxfile>
